M48
;DRILL file {KiCad (2015-07-30 BZR 6023, Git cb629e0)-product} date 8/27/2015 11:16:23 AM
;FORMAT={-:-/ absolute / metric / decimal}
FMAT,2
METRIC,TZ
T1C1.016
%
G90
G05
M71
T1
X123.19Y-58.42
X123.19Y-60.96
X124.46Y-72.39
X125.73Y-58.42
X125.73Y-60.96
X127.Y-72.39
X128.27Y-58.42
X128.27Y-60.96
X130.81Y-58.42
X130.81Y-60.96
X133.35Y-58.42
X133.35Y-60.96
X135.89Y-58.42
X135.89Y-60.96
X138.43Y-58.42
X138.43Y-60.96
X140.97Y-58.42
X140.97Y-60.96
X143.51Y-58.42
X143.51Y-60.96
X144.272Y-71.12
X144.272Y-73.66
X144.272Y-76.2
X144.272Y-78.74
X144.272Y-81.28
X144.272Y-83.82
X144.272Y-86.36
X144.272Y-88.9
X144.272Y-91.44
X144.272Y-93.98
X144.272Y-96.52
X144.272Y-99.06
X144.272Y-101.6
X144.272Y-104.14
X144.272Y-106.68
X144.272Y-109.22
X144.272Y-111.76
X144.272Y-114.3
X144.272Y-116.84
X144.272Y-119.38
X146.05Y-58.42
X146.05Y-60.96
X148.59Y-58.42
X148.59Y-60.96
X151.13Y-58.42
X151.13Y-60.96
X152.142Y-71.12
X152.142Y-73.66
X152.142Y-76.2
X152.142Y-78.74
X152.142Y-81.28
X152.142Y-83.82
X152.142Y-86.36
X152.142Y-88.9
X152.142Y-91.44
X152.142Y-93.98
X152.142Y-96.52
X152.142Y-99.06
X152.142Y-101.6
X152.142Y-104.14
X152.142Y-106.68
X152.142Y-109.22
X152.142Y-111.76
X152.142Y-114.3
X152.142Y-116.84
X152.142Y-119.38
X153.67Y-58.42
X153.67Y-60.96
X156.21Y-58.42
X156.21Y-60.96
X158.75Y-58.42
X158.75Y-60.96
X161.29Y-58.42
X161.29Y-60.96
X163.83Y-58.42
X163.83Y-60.96
X166.37Y-58.42
X166.37Y-60.96
X168.91Y-58.42
X168.91Y-60.96
X168.91Y-72.39
X171.45Y-58.42
X171.45Y-60.96
X171.45Y-72.39
T0
M30
