G04 #@! TF.FileFunction,Legend,Top*
%FSLAX46Y46*%
G04 Gerber Fmt 4.6, Leading zero omitted, Abs format (unit mm)*
G04 Created by KiCad (PCBNEW (2015-07-30 BZR 6023, Git cb629e0)-product) date 8/27/2015 11:16:19 AM*
%MOMM*%
G01*
G04 APERTURE LIST*
%ADD10C,0.100000*%
%ADD11C,0.127000*%
%ADD12C,0.150000*%
G04 APERTURE END LIST*
D10*
D11*
X149602100Y-77025404D02*
X149549719Y-77120642D01*
X149549719Y-77263499D01*
X149602100Y-77406357D01*
X149706862Y-77501595D01*
X149811624Y-77549214D01*
X150021148Y-77596833D01*
X150178290Y-77596833D01*
X150387814Y-77549214D01*
X150492576Y-77501595D01*
X150597338Y-77406357D01*
X150649719Y-77263499D01*
X150649719Y-77168261D01*
X150597338Y-77025404D01*
X150544957Y-76977785D01*
X150178290Y-76977785D01*
X150178290Y-77168261D01*
X150649719Y-76549214D02*
X149549719Y-76549214D01*
X150649719Y-75977785D01*
X149549719Y-75977785D01*
X150649719Y-75501595D02*
X149549719Y-75501595D01*
X149549719Y-75263500D01*
X149602100Y-75120642D01*
X149706862Y-75025404D01*
X149811624Y-74977785D01*
X150021148Y-74930166D01*
X150178290Y-74930166D01*
X150387814Y-74977785D01*
X150492576Y-75025404D01*
X150597338Y-75120642D01*
X150649719Y-75263500D01*
X150649719Y-75501595D01*
X150827519Y-82175266D02*
X150303710Y-82508600D01*
X150827519Y-82746695D02*
X149727519Y-82746695D01*
X149727519Y-82365742D01*
X149779900Y-82270504D01*
X149832281Y-82222885D01*
X149937043Y-82175266D01*
X150094186Y-82175266D01*
X150198948Y-82222885D01*
X150251329Y-82270504D01*
X150303710Y-82365742D01*
X150303710Y-82746695D01*
X149727519Y-81841933D02*
X150827519Y-81175266D01*
X149727519Y-81175266D02*
X150827519Y-81841933D01*
X150827519Y-80794314D02*
X149727519Y-80794314D01*
X149727519Y-80556219D01*
X149779900Y-80413361D01*
X149884662Y-80318123D01*
X149989424Y-80270504D01*
X150198948Y-80222885D01*
X150356090Y-80222885D01*
X150565614Y-80270504D01*
X150670376Y-80318123D01*
X150775138Y-80413361D01*
X150827519Y-80556219D01*
X150827519Y-80794314D01*
X149691000Y-87160004D02*
X149638619Y-87255242D01*
X149638619Y-87398099D01*
X149691000Y-87540957D01*
X149795762Y-87636195D01*
X149900524Y-87683814D01*
X150110048Y-87731433D01*
X150267190Y-87731433D01*
X150476714Y-87683814D01*
X150581476Y-87636195D01*
X150686238Y-87540957D01*
X150738619Y-87398099D01*
X150738619Y-87302861D01*
X150686238Y-87160004D01*
X150633857Y-87112385D01*
X150267190Y-87112385D01*
X150267190Y-87302861D01*
X150738619Y-86683814D02*
X149638619Y-86683814D01*
X150738619Y-86112385D01*
X149638619Y-86112385D01*
X150738619Y-85636195D02*
X149638619Y-85636195D01*
X149638619Y-85398100D01*
X149691000Y-85255242D01*
X149795762Y-85160004D01*
X149900524Y-85112385D01*
X150110048Y-85064766D01*
X150267190Y-85064766D01*
X150476714Y-85112385D01*
X150581476Y-85160004D01*
X150686238Y-85255242D01*
X150738619Y-85398100D01*
X150738619Y-85636195D01*
X149743381Y-92138405D02*
X149691000Y-92090786D01*
X149638619Y-91995548D01*
X149638619Y-91757452D01*
X149691000Y-91662214D01*
X149743381Y-91614595D01*
X149848143Y-91566976D01*
X149952905Y-91566976D01*
X150110048Y-91614595D01*
X150738619Y-92186024D01*
X150738619Y-91566976D01*
X150005286Y-90709833D02*
X150738619Y-90709833D01*
X149586238Y-90947929D02*
X150371952Y-91186024D01*
X150371952Y-90566976D01*
X149654481Y-97561305D02*
X149602100Y-97513686D01*
X149549719Y-97418448D01*
X149549719Y-97180352D01*
X149602100Y-97085114D01*
X149654481Y-97037495D01*
X149759243Y-96989876D01*
X149864005Y-96989876D01*
X150021148Y-97037495D01*
X150649719Y-97608924D01*
X150649719Y-96989876D01*
X149549719Y-96085114D02*
X149549719Y-96561305D01*
X150073529Y-96608924D01*
X150021148Y-96561305D01*
X149968767Y-96466067D01*
X149968767Y-96227971D01*
X150021148Y-96132733D01*
X150073529Y-96085114D01*
X150178290Y-96037495D01*
X150440195Y-96037495D01*
X150544957Y-96085114D01*
X150597338Y-96132733D01*
X150649719Y-96227971D01*
X150649719Y-96466067D01*
X150597338Y-96561305D01*
X150544957Y-96608924D01*
X150722757Y-102396847D02*
X150775138Y-102444466D01*
X150827519Y-102587323D01*
X150827519Y-102682561D01*
X150775138Y-102825419D01*
X150670376Y-102920657D01*
X150565614Y-102968276D01*
X150356090Y-103015895D01*
X150198948Y-103015895D01*
X149989424Y-102968276D01*
X149884662Y-102920657D01*
X149779900Y-102825419D01*
X149727519Y-102682561D01*
X149727519Y-102587323D01*
X149779900Y-102444466D01*
X149832281Y-102396847D01*
X150251329Y-101968276D02*
X150251329Y-101634942D01*
X150827519Y-101492085D02*
X150827519Y-101968276D01*
X149727519Y-101968276D01*
X149727519Y-101492085D01*
X150827519Y-100539704D02*
X150827519Y-101111133D01*
X150827519Y-100825419D02*
X149727519Y-100825419D01*
X149884662Y-100920657D01*
X149989424Y-101015895D01*
X150041805Y-101111133D01*
X149602100Y-107695904D02*
X149549719Y-107791142D01*
X149549719Y-107933999D01*
X149602100Y-108076857D01*
X149706862Y-108172095D01*
X149811624Y-108219714D01*
X150021148Y-108267333D01*
X150178290Y-108267333D01*
X150387814Y-108219714D01*
X150492576Y-108172095D01*
X150597338Y-108076857D01*
X150649719Y-107933999D01*
X150649719Y-107838761D01*
X150597338Y-107695904D01*
X150544957Y-107648285D01*
X150178290Y-107648285D01*
X150178290Y-107838761D01*
X150649719Y-107219714D02*
X149549719Y-107219714D01*
X150649719Y-106648285D01*
X149549719Y-106648285D01*
X150649719Y-106172095D02*
X149549719Y-106172095D01*
X149549719Y-105934000D01*
X149602100Y-105791142D01*
X149706862Y-105695904D01*
X149811624Y-105648285D01*
X150021148Y-105600666D01*
X150178290Y-105600666D01*
X150387814Y-105648285D01*
X150492576Y-105695904D01*
X150597338Y-105791142D01*
X150649719Y-105934000D01*
X150649719Y-106172095D01*
X149513200Y-112585404D02*
X149460819Y-112680642D01*
X149460819Y-112823499D01*
X149513200Y-112966357D01*
X149617962Y-113061595D01*
X149722724Y-113109214D01*
X149932248Y-113156833D01*
X150089390Y-113156833D01*
X150298914Y-113109214D01*
X150403676Y-113061595D01*
X150508438Y-112966357D01*
X150560819Y-112823499D01*
X150560819Y-112728261D01*
X150508438Y-112585404D01*
X150456057Y-112537785D01*
X150089390Y-112537785D01*
X150089390Y-112728261D01*
X150560819Y-112109214D02*
X149460819Y-112109214D01*
X150560819Y-111537785D01*
X149460819Y-111537785D01*
X150560819Y-111061595D02*
X149460819Y-111061595D01*
X149460819Y-110823500D01*
X149513200Y-110680642D01*
X149617962Y-110585404D01*
X149722724Y-110537785D01*
X149932248Y-110490166D01*
X150089390Y-110490166D01*
X150298914Y-110537785D01*
X150403676Y-110585404D01*
X150508438Y-110680642D01*
X150560819Y-110823500D01*
X150560819Y-111061595D01*
X149654481Y-117563805D02*
X149602100Y-117516186D01*
X149549719Y-117420948D01*
X149549719Y-117182852D01*
X149602100Y-117087614D01*
X149654481Y-117039995D01*
X149759243Y-116992376D01*
X149864005Y-116992376D01*
X150021148Y-117039995D01*
X150649719Y-117611424D01*
X150649719Y-116992376D01*
X149549719Y-116373329D02*
X149549719Y-116278090D01*
X149602100Y-116182852D01*
X149654481Y-116135233D01*
X149759243Y-116087614D01*
X149968767Y-116039995D01*
X150230671Y-116039995D01*
X150440195Y-116087614D01*
X150544957Y-116135233D01*
X150597338Y-116182852D01*
X150649719Y-116278090D01*
X150649719Y-116373329D01*
X150597338Y-116468567D01*
X150544957Y-116516186D01*
X150440195Y-116563805D01*
X150230671Y-116611424D01*
X149968767Y-116611424D01*
X149759243Y-116563805D01*
X149654481Y-116516186D01*
X149602100Y-116468567D01*
X149549719Y-116373329D01*
X153616881Y-120129205D02*
X153564500Y-120081586D01*
X153512119Y-119986348D01*
X153512119Y-119748252D01*
X153564500Y-119653014D01*
X153616881Y-119605395D01*
X153721643Y-119557776D01*
X153826405Y-119557776D01*
X153983548Y-119605395D01*
X154612119Y-120176824D01*
X154612119Y-119557776D01*
X154612119Y-118605395D02*
X154612119Y-119176824D01*
X154612119Y-118891110D02*
X153512119Y-118891110D01*
X153669262Y-118986348D01*
X153774024Y-119081586D01*
X153826405Y-119176824D01*
X154523219Y-114134876D02*
X154523219Y-114706305D01*
X154523219Y-114420591D02*
X153423219Y-114420591D01*
X153580362Y-114515829D01*
X153685124Y-114611067D01*
X153737505Y-114706305D01*
X153423219Y-113277733D02*
X153423219Y-113468210D01*
X153475600Y-113563448D01*
X153527981Y-113611067D01*
X153685124Y-113706305D01*
X153894648Y-113753924D01*
X154313695Y-113753924D01*
X154418457Y-113706305D01*
X154470838Y-113658686D01*
X154523219Y-113563448D01*
X154523219Y-113372971D01*
X154470838Y-113277733D01*
X154418457Y-113230114D01*
X154313695Y-113182495D01*
X154051790Y-113182495D01*
X153947029Y-113230114D01*
X153894648Y-113277733D01*
X153842267Y-113372971D01*
X153842267Y-113563448D01*
X153894648Y-113658686D01*
X153947029Y-113706305D01*
X154051790Y-113753924D01*
X154434319Y-109156476D02*
X154434319Y-109727905D01*
X154434319Y-109442191D02*
X153334319Y-109442191D01*
X153491462Y-109537429D01*
X153596224Y-109632667D01*
X153648605Y-109727905D01*
X153439081Y-108775524D02*
X153386700Y-108727905D01*
X153334319Y-108632667D01*
X153334319Y-108394571D01*
X153386700Y-108299333D01*
X153439081Y-108251714D01*
X153543843Y-108204095D01*
X153648605Y-108204095D01*
X153805748Y-108251714D01*
X154434319Y-108823143D01*
X154434319Y-108204095D01*
X154470838Y-104862214D02*
X154523219Y-104719357D01*
X154523219Y-104481261D01*
X154470838Y-104386023D01*
X154418457Y-104338404D01*
X154313695Y-104290785D01*
X154208933Y-104290785D01*
X154104171Y-104338404D01*
X154051790Y-104386023D01*
X153999410Y-104481261D01*
X153947029Y-104671738D01*
X153894648Y-104766976D01*
X153842267Y-104814595D01*
X153737505Y-104862214D01*
X153632743Y-104862214D01*
X153527981Y-104814595D01*
X153475600Y-104766976D01*
X153423219Y-104671738D01*
X153423219Y-104433642D01*
X153475600Y-104290785D01*
X154418457Y-103290785D02*
X154470838Y-103338404D01*
X154523219Y-103481261D01*
X154523219Y-103576499D01*
X154470838Y-103719357D01*
X154366076Y-103814595D01*
X154261314Y-103862214D01*
X154051790Y-103909833D01*
X153894648Y-103909833D01*
X153685124Y-103862214D01*
X153580362Y-103814595D01*
X153475600Y-103719357D01*
X153423219Y-103576499D01*
X153423219Y-103481261D01*
X153475600Y-103338404D01*
X153527981Y-103290785D01*
X154596257Y-99539347D02*
X154648638Y-99586966D01*
X154701019Y-99729823D01*
X154701019Y-99825061D01*
X154648638Y-99967919D01*
X154543876Y-100063157D01*
X154439114Y-100110776D01*
X154229590Y-100158395D01*
X154072448Y-100158395D01*
X153862924Y-100110776D01*
X153758162Y-100063157D01*
X153653400Y-99967919D01*
X153601019Y-99825061D01*
X153601019Y-99729823D01*
X153653400Y-99586966D01*
X153705781Y-99539347D01*
X154124829Y-99110776D02*
X154124829Y-98777442D01*
X154701019Y-98634585D02*
X154701019Y-99110776D01*
X153601019Y-99110776D01*
X153601019Y-98634585D01*
X153601019Y-98015538D02*
X153601019Y-97920299D01*
X153653400Y-97825061D01*
X153705781Y-97777442D01*
X153810543Y-97729823D01*
X154020067Y-97682204D01*
X154281971Y-97682204D01*
X154491495Y-97729823D01*
X154596257Y-97777442D01*
X154648638Y-97825061D01*
X154701019Y-97920299D01*
X154701019Y-98015538D01*
X154648638Y-98110776D01*
X154596257Y-98158395D01*
X154491495Y-98206014D01*
X154281971Y-98253633D01*
X154020067Y-98253633D01*
X153810543Y-98206014D01*
X153705781Y-98158395D01*
X153653400Y-98110776D01*
X153601019Y-98015538D01*
X153475600Y-94703804D02*
X153423219Y-94799042D01*
X153423219Y-94941899D01*
X153475600Y-95084757D01*
X153580362Y-95179995D01*
X153685124Y-95227614D01*
X153894648Y-95275233D01*
X154051790Y-95275233D01*
X154261314Y-95227614D01*
X154366076Y-95179995D01*
X154470838Y-95084757D01*
X154523219Y-94941899D01*
X154523219Y-94846661D01*
X154470838Y-94703804D01*
X154418457Y-94656185D01*
X154051790Y-94656185D01*
X154051790Y-94846661D01*
X154523219Y-94227614D02*
X153423219Y-94227614D01*
X154523219Y-93656185D01*
X153423219Y-93656185D01*
X154523219Y-93179995D02*
X153423219Y-93179995D01*
X153423219Y-92941900D01*
X153475600Y-92799042D01*
X153580362Y-92703804D01*
X153685124Y-92656185D01*
X153894648Y-92608566D01*
X154051790Y-92608566D01*
X154261314Y-92656185D01*
X154366076Y-92703804D01*
X154470838Y-92799042D01*
X154523219Y-92941900D01*
X154523219Y-93179995D01*
X153616881Y-89280905D02*
X153564500Y-89233286D01*
X153512119Y-89138048D01*
X153512119Y-88899952D01*
X153564500Y-88804714D01*
X153616881Y-88757095D01*
X153721643Y-88709476D01*
X153826405Y-88709476D01*
X153983548Y-88757095D01*
X154612119Y-89328524D01*
X154612119Y-88709476D01*
X153512119Y-88376143D02*
X153512119Y-87757095D01*
X153931167Y-88090429D01*
X153931167Y-87947571D01*
X153983548Y-87852333D01*
X154035929Y-87804714D01*
X154140690Y-87757095D01*
X154402595Y-87757095D01*
X154507357Y-87804714D01*
X154559738Y-87852333D01*
X154612119Y-87947571D01*
X154612119Y-88233286D01*
X154559738Y-88328524D01*
X154507357Y-88376143D01*
X154612119Y-83731076D02*
X154612119Y-84302505D01*
X154612119Y-84016791D02*
X153512119Y-84016791D01*
X153669262Y-84112029D01*
X153774024Y-84207267D01*
X153826405Y-84302505D01*
X153983548Y-83159648D02*
X153931167Y-83254886D01*
X153878786Y-83302505D01*
X153774024Y-83350124D01*
X153721643Y-83350124D01*
X153616881Y-83302505D01*
X153564500Y-83254886D01*
X153512119Y-83159648D01*
X153512119Y-82969171D01*
X153564500Y-82873933D01*
X153616881Y-82826314D01*
X153721643Y-82778695D01*
X153774024Y-82778695D01*
X153878786Y-82826314D01*
X153931167Y-82873933D01*
X153983548Y-82969171D01*
X153983548Y-83159648D01*
X154035929Y-83254886D01*
X154088310Y-83302505D01*
X154193071Y-83350124D01*
X154402595Y-83350124D01*
X154507357Y-83302505D01*
X154559738Y-83254886D01*
X154612119Y-83159648D01*
X154612119Y-82969171D01*
X154559738Y-82873933D01*
X154507357Y-82826314D01*
X154402595Y-82778695D01*
X154193071Y-82778695D01*
X154088310Y-82826314D01*
X154035929Y-82873933D01*
X153983548Y-82969171D01*
X153601019Y-79913005D02*
X153601019Y-79341576D01*
X154701019Y-79627291D02*
X153601019Y-79627291D01*
X153601019Y-79103481D02*
X154701019Y-78436814D01*
X153601019Y-78436814D02*
X154701019Y-79103481D01*
X154701019Y-78055862D02*
X153601019Y-78055862D01*
X153601019Y-77817767D01*
X153653400Y-77674909D01*
X153758162Y-77579671D01*
X153862924Y-77532052D01*
X154072448Y-77484433D01*
X154229590Y-77484433D01*
X154439114Y-77532052D01*
X154543876Y-77579671D01*
X154648638Y-77674909D01*
X154701019Y-77817767D01*
X154701019Y-78055862D01*
X149562419Y-71310476D02*
X149562419Y-71786667D01*
X150086229Y-71834286D01*
X150033848Y-71786667D01*
X149981467Y-71691429D01*
X149981467Y-71453333D01*
X150033848Y-71358095D01*
X150086229Y-71310476D01*
X150190990Y-71262857D01*
X150452895Y-71262857D01*
X150557657Y-71310476D01*
X150610038Y-71358095D01*
X150662419Y-71453333D01*
X150662419Y-71691429D01*
X150610038Y-71786667D01*
X150557657Y-71834286D01*
X149562419Y-70977143D02*
X150662419Y-70643810D01*
X149562419Y-70310476D01*
X153423219Y-73596476D02*
X153423219Y-74072667D01*
X153947029Y-74120286D01*
X153894648Y-74072667D01*
X153842267Y-73977429D01*
X153842267Y-73739333D01*
X153894648Y-73644095D01*
X153947029Y-73596476D01*
X154051790Y-73548857D01*
X154313695Y-73548857D01*
X154418457Y-73596476D01*
X154470838Y-73644095D01*
X154523219Y-73739333D01*
X154523219Y-73977429D01*
X154470838Y-74072667D01*
X154418457Y-74120286D01*
X153423219Y-73263143D02*
X154523219Y-72929810D01*
X153423219Y-72596476D01*
X141069281Y-114160324D02*
X141069281Y-113588895D01*
X141069281Y-113874609D02*
X142169281Y-113874609D01*
X142012138Y-113779371D01*
X141907376Y-113684133D01*
X141854995Y-113588895D01*
X141069281Y-114636514D02*
X141069281Y-114826990D01*
X141121662Y-114922229D01*
X141174043Y-114969848D01*
X141331186Y-115065086D01*
X141540710Y-115112705D01*
X141959757Y-115112705D01*
X142064519Y-115065086D01*
X142116900Y-115017467D01*
X142169281Y-114922229D01*
X142169281Y-114731752D01*
X142116900Y-114636514D01*
X142064519Y-114588895D01*
X141959757Y-114541276D01*
X141697852Y-114541276D01*
X141593090Y-114588895D01*
X141540710Y-114636514D01*
X141488329Y-114731752D01*
X141488329Y-114922229D01*
X141540710Y-115017467D01*
X141593090Y-115065086D01*
X141697852Y-115112705D01*
X147017519Y-116243195D02*
X147069900Y-116290814D01*
X147122281Y-116386052D01*
X147122281Y-116624148D01*
X147069900Y-116719386D01*
X147017519Y-116767005D01*
X146912757Y-116814624D01*
X146807995Y-116814624D01*
X146650852Y-116767005D01*
X146022281Y-116195576D01*
X146022281Y-116814624D01*
X147122281Y-117671767D02*
X147122281Y-117481290D01*
X147069900Y-117386052D01*
X147017519Y-117338433D01*
X146860376Y-117243195D01*
X146650852Y-117195576D01*
X146231805Y-117195576D01*
X146127043Y-117243195D01*
X146074662Y-117290814D01*
X146022281Y-117386052D01*
X146022281Y-117576529D01*
X146074662Y-117671767D01*
X146127043Y-117719386D01*
X146231805Y-117767005D01*
X146493710Y-117767005D01*
X146598471Y-117719386D01*
X146650852Y-117671767D01*
X146703233Y-117576529D01*
X146703233Y-117386052D01*
X146650852Y-117290814D01*
X146598471Y-117243195D01*
X146493710Y-117195576D01*
X145966401Y-111561904D02*
X145966401Y-110990475D01*
X145966401Y-111276189D02*
X147066401Y-111276189D01*
X146909258Y-111180951D01*
X146804496Y-111085713D01*
X146752115Y-110990475D01*
X147066401Y-111895237D02*
X147066401Y-112514285D01*
X146647353Y-112180951D01*
X146647353Y-112323809D01*
X146594972Y-112419047D01*
X146542591Y-112466666D01*
X146437830Y-112514285D01*
X146175925Y-112514285D01*
X146071163Y-112466666D01*
X146018782Y-112419047D01*
X145966401Y-112323809D01*
X145966401Y-112038094D01*
X146018782Y-111942856D01*
X146071163Y-111895237D01*
X147066401Y-106961276D02*
X147066401Y-106485085D01*
X146542591Y-106437466D01*
X146594972Y-106485085D01*
X146647353Y-106580323D01*
X146647353Y-106818419D01*
X146594972Y-106913657D01*
X146542591Y-106961276D01*
X146437830Y-107008895D01*
X146175925Y-107008895D01*
X146071163Y-106961276D01*
X146018782Y-106913657D01*
X145966401Y-106818419D01*
X145966401Y-106580323D01*
X146018782Y-106485085D01*
X146071163Y-106437466D01*
X146958140Y-100987956D02*
X147010521Y-100892718D01*
X147010521Y-100749861D01*
X146958140Y-100607003D01*
X146853378Y-100511765D01*
X146748616Y-100464146D01*
X146539092Y-100416527D01*
X146381950Y-100416527D01*
X146172426Y-100464146D01*
X146067664Y-100511765D01*
X145962902Y-100607003D01*
X145910521Y-100749861D01*
X145910521Y-100845099D01*
X145962902Y-100987956D01*
X146015283Y-101035575D01*
X146381950Y-101035575D01*
X146381950Y-100845099D01*
X145910521Y-101464146D02*
X147010521Y-101464146D01*
X145910521Y-102035575D01*
X147010521Y-102035575D01*
X145910521Y-102511765D02*
X147010521Y-102511765D01*
X147010521Y-102749860D01*
X146958140Y-102892718D01*
X146853378Y-102987956D01*
X146748616Y-103035575D01*
X146539092Y-103083194D01*
X146381950Y-103083194D01*
X146172426Y-103035575D01*
X146067664Y-102987956D01*
X145962902Y-102892718D01*
X145910521Y-102749860D01*
X145910521Y-102511765D01*
X146690301Y-94979052D02*
X147790301Y-94979052D01*
X147004587Y-95312386D01*
X147790301Y-95645719D01*
X146690301Y-95645719D01*
X146690301Y-96121909D02*
X147790301Y-96121909D01*
X146742682Y-96550480D02*
X146690301Y-96693337D01*
X146690301Y-96931433D01*
X146742682Y-97026671D01*
X146795063Y-97074290D01*
X146899825Y-97121909D01*
X147004587Y-97121909D01*
X147109349Y-97074290D01*
X147161730Y-97026671D01*
X147214110Y-96931433D01*
X147266491Y-96740956D01*
X147318872Y-96645718D01*
X147371253Y-96598099D01*
X147476015Y-96550480D01*
X147580777Y-96550480D01*
X147685539Y-96598099D01*
X147737920Y-96645718D01*
X147790301Y-96740956D01*
X147790301Y-96979052D01*
X147737920Y-97121909D01*
X147790301Y-97740956D02*
X147790301Y-97931433D01*
X147737920Y-98026671D01*
X147633158Y-98121909D01*
X147423634Y-98169528D01*
X147056968Y-98169528D01*
X146847444Y-98121909D01*
X146742682Y-98026671D01*
X146690301Y-97931433D01*
X146690301Y-97740956D01*
X146742682Y-97645718D01*
X146847444Y-97550480D01*
X147056968Y-97502861D01*
X147423634Y-97502861D01*
X147633158Y-97550480D01*
X147737920Y-97645718D01*
X147790301Y-97740956D01*
X146954641Y-90445104D02*
X146954641Y-91064152D01*
X146535593Y-90730818D01*
X146535593Y-90873676D01*
X146483212Y-90968914D01*
X146430831Y-91016533D01*
X146326070Y-91064152D01*
X146064165Y-91064152D01*
X145959403Y-91016533D01*
X145907022Y-90968914D01*
X145854641Y-90873676D01*
X145854641Y-90587961D01*
X145907022Y-90492723D01*
X145959403Y-90445104D01*
X146587974Y-91397485D02*
X145854641Y-91635580D01*
X146587974Y-91873676D01*
X146954641Y-92159390D02*
X146954641Y-92778438D01*
X146535593Y-92445104D01*
X146535593Y-92587962D01*
X146483212Y-92683200D01*
X146430831Y-92730819D01*
X146326070Y-92778438D01*
X146064165Y-92778438D01*
X145959403Y-92730819D01*
X145907022Y-92683200D01*
X145854641Y-92587962D01*
X145854641Y-92302247D01*
X145907022Y-92207009D01*
X145959403Y-92159390D01*
X142166119Y-118541895D02*
X142218500Y-118589514D01*
X142270881Y-118684752D01*
X142270881Y-118922848D01*
X142218500Y-119018086D01*
X142166119Y-119065705D01*
X142061357Y-119113324D01*
X141956595Y-119113324D01*
X141799452Y-119065705D01*
X141170881Y-118494276D01*
X141170881Y-119113324D01*
X142270881Y-119732371D02*
X142270881Y-119827610D01*
X142218500Y-119922848D01*
X142166119Y-119970467D01*
X142061357Y-120018086D01*
X141851833Y-120065705D01*
X141589929Y-120065705D01*
X141380405Y-120018086D01*
X141275643Y-119970467D01*
X141223262Y-119922848D01*
X141170881Y-119827610D01*
X141170881Y-119732371D01*
X141223262Y-119637133D01*
X141275643Y-119589514D01*
X141380405Y-119541895D01*
X141589929Y-119494276D01*
X141851833Y-119494276D01*
X142061357Y-119541895D01*
X142166119Y-119589514D01*
X142218500Y-119637133D01*
X142270881Y-119732371D01*
X142258181Y-109296177D02*
X142258181Y-109105700D01*
X142205800Y-109010462D01*
X142153419Y-108962843D01*
X141996276Y-108867605D01*
X141786752Y-108819986D01*
X141367705Y-108819986D01*
X141262943Y-108867605D01*
X141210562Y-108915224D01*
X141158181Y-109010462D01*
X141158181Y-109200939D01*
X141210562Y-109296177D01*
X141262943Y-109343796D01*
X141367705Y-109391415D01*
X141629610Y-109391415D01*
X141734371Y-109343796D01*
X141786752Y-109296177D01*
X141839133Y-109200939D01*
X141839133Y-109010462D01*
X141786752Y-108915224D01*
X141734371Y-108867605D01*
X141629610Y-108819986D01*
X141299462Y-102985986D02*
X141247081Y-103128843D01*
X141247081Y-103366939D01*
X141299462Y-103462177D01*
X141351843Y-103509796D01*
X141456605Y-103557415D01*
X141561367Y-103557415D01*
X141666129Y-103509796D01*
X141718510Y-103462177D01*
X141770890Y-103366939D01*
X141823271Y-103176462D01*
X141875652Y-103081224D01*
X141928033Y-103033605D01*
X142032795Y-102985986D01*
X142137557Y-102985986D01*
X142242319Y-103033605D01*
X142294700Y-103081224D01*
X142347081Y-103176462D01*
X142347081Y-103414558D01*
X142294700Y-103557415D01*
X141247081Y-103985986D02*
X142347081Y-103985986D01*
X142347081Y-104224081D01*
X142294700Y-104366939D01*
X142189938Y-104462177D01*
X142085176Y-104509796D01*
X141875652Y-104557415D01*
X141718510Y-104557415D01*
X141508986Y-104509796D01*
X141404224Y-104462177D01*
X141299462Y-104366939D01*
X141247081Y-104224081D01*
X141247081Y-103985986D01*
X141299462Y-97280624D02*
X141247081Y-97423481D01*
X141247081Y-97661577D01*
X141299462Y-97756815D01*
X141351843Y-97804434D01*
X141456605Y-97852053D01*
X141561367Y-97852053D01*
X141666129Y-97804434D01*
X141718510Y-97756815D01*
X141770890Y-97661577D01*
X141823271Y-97471100D01*
X141875652Y-97375862D01*
X141928033Y-97328243D01*
X142032795Y-97280624D01*
X142137557Y-97280624D01*
X142242319Y-97328243D01*
X142294700Y-97375862D01*
X142347081Y-97471100D01*
X142347081Y-97709196D01*
X142294700Y-97852053D01*
X141351843Y-98852053D02*
X141299462Y-98804434D01*
X141247081Y-98661577D01*
X141247081Y-98566339D01*
X141299462Y-98423481D01*
X141404224Y-98328243D01*
X141508986Y-98280624D01*
X141718510Y-98233005D01*
X141875652Y-98233005D01*
X142085176Y-98280624D01*
X142189938Y-98328243D01*
X142294700Y-98423481D01*
X142347081Y-98566339D01*
X142347081Y-98661577D01*
X142294700Y-98804434D01*
X142242319Y-98852053D01*
X141247081Y-99756815D02*
X141247081Y-99280624D01*
X142347081Y-99280624D01*
X141247081Y-100090148D02*
X142347081Y-100090148D01*
X141247081Y-100661577D02*
X141875652Y-100233005D01*
X142347081Y-100661577D02*
X141718510Y-100090148D01*
X141158181Y-92421272D02*
X142258181Y-92421272D01*
X141472467Y-92754606D01*
X142258181Y-93087939D01*
X141158181Y-93087939D01*
X142258181Y-93754605D02*
X142258181Y-93945082D01*
X142205800Y-94040320D01*
X142101038Y-94135558D01*
X141891514Y-94183177D01*
X141524848Y-94183177D01*
X141315324Y-94135558D01*
X141210562Y-94040320D01*
X141158181Y-93945082D01*
X141158181Y-93754605D01*
X141210562Y-93659367D01*
X141315324Y-93564129D01*
X141524848Y-93516510D01*
X141891514Y-93516510D01*
X142101038Y-93564129D01*
X142205800Y-93659367D01*
X142258181Y-93754605D01*
X141210562Y-94564129D02*
X141158181Y-94706986D01*
X141158181Y-94945082D01*
X141210562Y-95040320D01*
X141262943Y-95087939D01*
X141367705Y-95135558D01*
X141472467Y-95135558D01*
X141577229Y-95087939D01*
X141629610Y-95040320D01*
X141681990Y-94945082D01*
X141734371Y-94754605D01*
X141786752Y-94659367D01*
X141839133Y-94611748D01*
X141943895Y-94564129D01*
X142048657Y-94564129D01*
X142153419Y-94611748D01*
X142205800Y-94659367D01*
X142258181Y-94754605D01*
X142258181Y-94992701D01*
X142205800Y-95135558D01*
X141158181Y-95564129D02*
X142258181Y-95564129D01*
X142153419Y-88074595D02*
X142205800Y-88122214D01*
X142258181Y-88217452D01*
X142258181Y-88455548D01*
X142205800Y-88550786D01*
X142153419Y-88598405D01*
X142048657Y-88646024D01*
X141943895Y-88646024D01*
X141786752Y-88598405D01*
X141158181Y-88026976D01*
X141158181Y-88646024D01*
X142153419Y-89026976D02*
X142205800Y-89074595D01*
X142258181Y-89169833D01*
X142258181Y-89407929D01*
X142205800Y-89503167D01*
X142153419Y-89550786D01*
X142048657Y-89598405D01*
X141943895Y-89598405D01*
X141786752Y-89550786D01*
X141158181Y-88979357D01*
X141158181Y-89598405D01*
X141247081Y-83489824D02*
X141247081Y-82918395D01*
X141247081Y-83204109D02*
X142347081Y-83204109D01*
X142189938Y-83108871D01*
X142085176Y-83013633D01*
X142032795Y-82918395D01*
X142347081Y-83823157D02*
X142347081Y-84489824D01*
X141247081Y-84061252D01*
X146928619Y-85813995D02*
X146981000Y-85861614D01*
X147033381Y-85956852D01*
X147033381Y-86194948D01*
X146981000Y-86290186D01*
X146928619Y-86337805D01*
X146823857Y-86385424D01*
X146719095Y-86385424D01*
X146561952Y-86337805D01*
X145933381Y-85766376D01*
X145933381Y-86385424D01*
X147033381Y-86718757D02*
X147033381Y-87385424D01*
X145933381Y-86956852D01*
X141624814Y-78447877D02*
X140891481Y-78447877D01*
X142043862Y-78209781D02*
X141258148Y-77971686D01*
X141258148Y-78590734D01*
X146706680Y-80619696D02*
X146759061Y-80524458D01*
X146759061Y-80381601D01*
X146706680Y-80238743D01*
X146601918Y-80143505D01*
X146497156Y-80095886D01*
X146287632Y-80048267D01*
X146130490Y-80048267D01*
X145920966Y-80095886D01*
X145816204Y-80143505D01*
X145711442Y-80238743D01*
X145659061Y-80381601D01*
X145659061Y-80476839D01*
X145711442Y-80619696D01*
X145763823Y-80667315D01*
X146130490Y-80667315D01*
X146130490Y-80476839D01*
X145659061Y-81095886D02*
X146759061Y-81095886D01*
X145659061Y-81667315D01*
X146759061Y-81667315D01*
X145659061Y-82143505D02*
X146759061Y-82143505D01*
X146759061Y-82381600D01*
X146706680Y-82524458D01*
X146601918Y-82619696D01*
X146497156Y-82667315D01*
X146287632Y-82714934D01*
X146130490Y-82714934D01*
X145920966Y-82667315D01*
X145816204Y-82619696D01*
X145711442Y-82524458D01*
X145659061Y-82381600D01*
X145659061Y-82143505D01*
X141121662Y-72153614D02*
X141069281Y-72296471D01*
X141069281Y-72534567D01*
X141121662Y-72629805D01*
X141174043Y-72677424D01*
X141278805Y-72725043D01*
X141383567Y-72725043D01*
X141488329Y-72677424D01*
X141540710Y-72629805D01*
X141593090Y-72534567D01*
X141645471Y-72344090D01*
X141697852Y-72248852D01*
X141750233Y-72201233D01*
X141854995Y-72153614D01*
X141959757Y-72153614D01*
X142064519Y-72201233D01*
X142116900Y-72248852D01*
X142169281Y-72344090D01*
X142169281Y-72582186D01*
X142116900Y-72725043D01*
X141069281Y-73153614D02*
X142169281Y-73153614D01*
X142169281Y-73391709D01*
X142116900Y-73534567D01*
X142012138Y-73629805D01*
X141907376Y-73677424D01*
X141697852Y-73725043D01*
X141540710Y-73725043D01*
X141331186Y-73677424D01*
X141226424Y-73629805D01*
X141121662Y-73534567D01*
X141069281Y-73391709D01*
X141069281Y-73153614D01*
X141383567Y-74105995D02*
X141383567Y-74582186D01*
X141069281Y-74010757D02*
X142169281Y-74344090D01*
X141069281Y-74677424D01*
X145658102Y-75037464D02*
X145605721Y-75180321D01*
X145605721Y-75418417D01*
X145658102Y-75513655D01*
X145710483Y-75561274D01*
X145815245Y-75608893D01*
X145920007Y-75608893D01*
X146024769Y-75561274D01*
X146077150Y-75513655D01*
X146129530Y-75418417D01*
X146181911Y-75227940D01*
X146234292Y-75132702D01*
X146286673Y-75085083D01*
X146391435Y-75037464D01*
X146496197Y-75037464D01*
X146600959Y-75085083D01*
X146653340Y-75132702D01*
X146705721Y-75227940D01*
X146705721Y-75466036D01*
X146653340Y-75608893D01*
X145710483Y-76608893D02*
X145658102Y-76561274D01*
X145605721Y-76418417D01*
X145605721Y-76323179D01*
X145658102Y-76180321D01*
X145762864Y-76085083D01*
X145867626Y-76037464D01*
X146077150Y-75989845D01*
X146234292Y-75989845D01*
X146443816Y-76037464D01*
X146548578Y-76085083D01*
X146653340Y-76180321D01*
X146705721Y-76323179D01*
X146705721Y-76418417D01*
X146653340Y-76561274D01*
X146600959Y-76608893D01*
X145605721Y-77513655D02*
X145605721Y-77037464D01*
X146705721Y-77037464D01*
X146736201Y-70023504D02*
X146736201Y-70642552D01*
X146317153Y-70309218D01*
X146317153Y-70452076D01*
X146264772Y-70547314D01*
X146212391Y-70594933D01*
X146107630Y-70642552D01*
X145845725Y-70642552D01*
X145740963Y-70594933D01*
X145688582Y-70547314D01*
X145636201Y-70452076D01*
X145636201Y-70166361D01*
X145688582Y-70071123D01*
X145740963Y-70023504D01*
X146369534Y-70975885D02*
X145636201Y-71213980D01*
X146369534Y-71452076D01*
X146736201Y-71737790D02*
X146736201Y-72356838D01*
X146317153Y-72023504D01*
X146317153Y-72166362D01*
X146264772Y-72261600D01*
X146212391Y-72309219D01*
X146107630Y-72356838D01*
X145845725Y-72356838D01*
X145740963Y-72309219D01*
X145688582Y-72261600D01*
X145636201Y-72166362D01*
X145636201Y-71880647D01*
X145688582Y-71785409D01*
X145740963Y-71737790D01*
D12*
X121920000Y-62230000D02*
X172720000Y-62230000D01*
X170180000Y-57150000D02*
X121920000Y-57150000D01*
X121920000Y-62230000D02*
X121920000Y-57150000D01*
X172720000Y-62230000D02*
X172720000Y-59690000D01*
X173000000Y-58420000D02*
X173000000Y-56870000D01*
X172720000Y-59690000D02*
X170180000Y-59690000D01*
X170180000Y-59690000D02*
X170180000Y-57150000D01*
X173000000Y-56870000D02*
X171450000Y-56870000D01*
X170180000Y-71120000D02*
X172720000Y-71120000D01*
X167360000Y-70840000D02*
X168910000Y-70840000D01*
X170180000Y-71120000D02*
X170180000Y-73660000D01*
X168910000Y-73940000D02*
X167360000Y-73940000D01*
X167360000Y-73940000D02*
X167360000Y-70840000D01*
X170180000Y-73660000D02*
X172720000Y-73660000D01*
X172720000Y-73660000D02*
X172720000Y-71120000D01*
X125730000Y-71120000D02*
X128270000Y-71120000D01*
X122910000Y-70840000D02*
X124460000Y-70840000D01*
X125730000Y-71120000D02*
X125730000Y-73660000D01*
X124460000Y-73940000D02*
X122910000Y-73940000D01*
X122910000Y-73940000D02*
X122910000Y-70840000D01*
X125730000Y-73660000D02*
X128270000Y-73660000D01*
X128270000Y-73660000D02*
X128270000Y-71120000D01*
X169989524Y-68032381D02*
X169513333Y-68032381D01*
X169465714Y-68508571D01*
X169513333Y-68460952D01*
X169608571Y-68413333D01*
X169846667Y-68413333D01*
X169941905Y-68460952D01*
X169989524Y-68508571D01*
X170037143Y-68603810D01*
X170037143Y-68841905D01*
X169989524Y-68937143D01*
X169941905Y-68984762D01*
X169846667Y-69032381D01*
X169608571Y-69032381D01*
X169513333Y-68984762D01*
X169465714Y-68937143D01*
X170322857Y-68032381D02*
X170656190Y-69032381D01*
X170989524Y-68032381D01*
X171069048Y-69921429D02*
X171830953Y-69921429D01*
X168529048Y-69921429D02*
X169290953Y-69921429D01*
X168910001Y-70302381D02*
X168910001Y-69540476D01*
X124491905Y-68032381D02*
X125110953Y-68032381D01*
X124777619Y-68413333D01*
X124920477Y-68413333D01*
X125015715Y-68460952D01*
X125063334Y-68508571D01*
X125110953Y-68603810D01*
X125110953Y-68841905D01*
X125063334Y-68937143D01*
X125015715Y-68984762D01*
X124920477Y-69032381D01*
X124634762Y-69032381D01*
X124539524Y-68984762D01*
X124491905Y-68937143D01*
X125396667Y-68032381D02*
X125730000Y-69032381D01*
X126063334Y-68032381D01*
X126301429Y-68032381D02*
X126920477Y-68032381D01*
X126587143Y-68413333D01*
X126730001Y-68413333D01*
X126825239Y-68460952D01*
X126872858Y-68508571D01*
X126920477Y-68603810D01*
X126920477Y-68841905D01*
X126872858Y-68937143D01*
X126825239Y-68984762D01*
X126730001Y-69032381D01*
X126444286Y-69032381D01*
X126349048Y-68984762D01*
X126301429Y-68937143D01*
X126619048Y-69921429D02*
X127380953Y-69921429D01*
X124079048Y-69921429D02*
X124840953Y-69921429D01*
X124460001Y-70302381D02*
X124460001Y-69540476D01*
M02*
