G04 #@! TF.FileFunction,Profile,NP*
%FSLAX46Y46*%
G04 Gerber Fmt 4.6, Leading zero omitted, Abs format (unit mm)*
G04 Created by KiCad (PCBNEW (2015-07-30 BZR 6023, Git cb629e0)-product) date 8/27/2015 11:16:19 AM*
%MOMM*%
G01*
G04 APERTURE LIST*
%ADD10C,0.100000*%
G04 APERTURE END LIST*
D10*
X141503400Y-123317000D02*
X153797000Y-123317000D01*
X118050447Y-52292068D02*
X118050447Y-52292068D01*
X121732821Y-52291955D02*
X118050447Y-52292068D01*
X125415215Y-52291955D02*
X121732821Y-52291955D01*
X129097608Y-52291955D02*
X125415215Y-52291955D01*
X132780002Y-52291955D02*
X129097608Y-52291955D01*
X136462395Y-52291955D02*
X132780002Y-52291955D01*
X140144789Y-52291955D02*
X136462395Y-52291955D01*
X143827183Y-52291955D02*
X140144789Y-52291955D01*
X147509577Y-52291955D02*
X143827183Y-52291955D01*
X151191971Y-52291955D02*
X147509577Y-52291955D01*
X154874364Y-52291955D02*
X151191971Y-52291955D01*
X158556757Y-52291955D02*
X154874364Y-52291955D01*
X162239150Y-52291955D02*
X158556757Y-52291955D01*
X167177800Y-52291955D02*
X162239150Y-52291955D01*
X170238940Y-52291955D02*
X166556546Y-52291955D01*
X173921333Y-52291955D02*
X170238940Y-52291955D01*
X177603726Y-52291955D02*
X173921333Y-52291955D01*
X177757515Y-52299660D02*
X177603726Y-52291955D01*
X177906762Y-52322322D02*
X177757515Y-52299660D01*
X178050724Y-52359161D02*
X177906762Y-52322322D01*
X178188657Y-52409453D02*
X178050724Y-52359161D01*
X178319823Y-52472448D02*
X178188657Y-52409453D01*
X178443475Y-52547411D02*
X178319823Y-52472448D01*
X178558876Y-52633596D02*
X178443475Y-52547411D01*
X178665280Y-52730263D02*
X178558876Y-52633596D01*
X178761943Y-52836667D02*
X178665280Y-52730263D01*
X178848128Y-52952067D02*
X178761943Y-52836667D01*
X178923092Y-53075720D02*
X178848128Y-52952067D01*
X178986090Y-53206886D02*
X178923092Y-53075720D01*
X179036379Y-53344819D02*
X178986090Y-53206886D01*
X179073218Y-53488781D02*
X179036379Y-53344819D01*
X179095880Y-53638028D02*
X179073218Y-53488781D01*
X179103585Y-53791817D02*
X179095880Y-53638028D01*
X179103585Y-54599209D02*
X179103585Y-53791817D01*
X179103585Y-55406602D02*
X179103585Y-54599209D01*
X179103585Y-56213995D02*
X179103585Y-55406602D01*
X179103585Y-57021387D02*
X179103585Y-56213995D01*
X179103585Y-57828780D02*
X179103585Y-57021387D01*
X179103585Y-58636172D02*
X179103585Y-57828780D01*
X179103585Y-59443565D02*
X179103585Y-58636172D01*
X179103585Y-60250955D02*
X179103585Y-59443565D01*
X179103585Y-61058347D02*
X179103585Y-60250955D01*
X179103585Y-61865740D02*
X179103585Y-61058347D01*
X179103585Y-62673133D02*
X179103585Y-61865740D01*
X179103585Y-63480525D02*
X179103585Y-62673133D01*
X179103585Y-64287918D02*
X179103585Y-63480525D01*
X179103585Y-65095311D02*
X179103585Y-64287918D01*
X179103585Y-65902703D02*
X179103585Y-65095311D01*
X179103585Y-66710096D02*
X179103585Y-65902703D01*
X179095880Y-66863884D02*
X179103585Y-66710096D01*
X179073218Y-67013132D02*
X179095880Y-66863884D01*
X179036379Y-67157093D02*
X179073218Y-67013132D01*
X178986090Y-67295027D02*
X179036379Y-67157093D01*
X178923092Y-67426192D02*
X178986090Y-67295027D01*
X178848128Y-67549845D02*
X178923092Y-67426192D01*
X178761943Y-67665246D02*
X178848128Y-67549845D01*
X178665280Y-67771649D02*
X178761943Y-67665246D01*
X178558876Y-67868316D02*
X178665280Y-67771649D01*
X178443475Y-67954501D02*
X178558876Y-67868316D01*
X178319823Y-68029465D02*
X178443475Y-67954501D01*
X178188657Y-68092460D02*
X178319823Y-68029465D01*
X178050724Y-68142752D02*
X178188657Y-68092460D01*
X177906762Y-68179590D02*
X178050724Y-68142752D01*
X177757515Y-68202253D02*
X177906762Y-68179590D01*
X177603726Y-68209957D02*
X177757515Y-68202253D01*
X177461980Y-68209957D02*
X177603726Y-68209957D01*
X177320234Y-68209957D02*
X177461980Y-68209957D01*
X177178485Y-68209957D02*
X177320234Y-68209957D01*
X177036739Y-68209957D02*
X177178485Y-68209957D01*
X176894993Y-68209957D02*
X177036739Y-68209957D01*
X176753247Y-68209957D02*
X176894993Y-68209957D01*
X176611500Y-68209957D02*
X176753247Y-68209957D01*
X176469751Y-68209957D02*
X176611500Y-68209957D01*
X176328005Y-68209957D02*
X176469751Y-68209957D01*
X176186259Y-68209957D02*
X176328005Y-68209957D01*
X176044513Y-68209957D02*
X176186259Y-68209957D01*
X175902767Y-68209957D02*
X176044513Y-68209957D01*
X175761021Y-68209957D02*
X175902767Y-68209957D01*
X175619272Y-68209957D02*
X175761021Y-68209957D01*
X175477526Y-68209957D02*
X175619272Y-68209957D01*
X175335780Y-68209957D02*
X175477526Y-68209957D01*
X175207160Y-68210087D02*
X175335780Y-68209957D01*
X175092750Y-68221489D02*
X175207160Y-68210087D01*
X174991734Y-68243023D02*
X175092750Y-68221489D01*
X174903300Y-68273607D02*
X174991734Y-68243023D01*
X174826628Y-68312122D02*
X174903300Y-68273607D01*
X174760904Y-68357452D02*
X174826628Y-68312122D01*
X174705312Y-68408492D02*
X174760904Y-68357452D01*
X174659036Y-68464130D02*
X174705312Y-68408492D01*
X174621261Y-68523252D02*
X174659036Y-68464130D01*
X174591170Y-68584751D02*
X174621261Y-68523252D01*
X174567943Y-68647515D02*
X174591170Y-68584751D01*
X174550784Y-68710433D02*
X174567943Y-68647515D01*
X174538846Y-68772392D02*
X174550784Y-68710433D01*
X174531339Y-68832286D02*
X174538846Y-68772392D01*
X174527416Y-68888998D02*
X174531339Y-68832286D01*
X174526287Y-68941421D02*
X174527416Y-68888998D01*
X174526287Y-69506588D02*
X174526287Y-68941421D01*
X174526287Y-70071758D02*
X174526287Y-69506588D01*
X174526287Y-70636925D02*
X174526287Y-70071758D01*
X174526287Y-71202091D02*
X174526287Y-70636925D01*
X174526287Y-71767261D02*
X174526287Y-71202091D01*
X174526287Y-72332428D02*
X174526287Y-71767261D01*
X174526287Y-72897598D02*
X174526287Y-72332428D01*
X174518555Y-73057903D02*
X174526287Y-72904109D01*
X174495892Y-73207167D02*
X174518555Y-73057903D01*
X174459025Y-73351157D02*
X174495892Y-73207167D01*
X174408700Y-73489124D02*
X174459025Y-73351157D01*
X174345660Y-73620332D02*
X174408700Y-73489124D01*
X174270651Y-73744033D02*
X174345660Y-73620332D01*
X174184418Y-73859482D02*
X174270651Y-73744033D01*
X174087700Y-73965936D02*
X174184418Y-73859482D01*
X173981246Y-74062654D02*
X174087700Y-73965936D01*
X173865794Y-74148889D02*
X173981246Y-74062654D01*
X173742096Y-74223898D02*
X173865794Y-74148889D01*
X173610888Y-74286936D02*
X173742096Y-74223898D01*
X173472918Y-74337261D02*
X173610888Y-74286936D01*
X173328931Y-74374128D02*
X173472918Y-74337261D01*
X173179667Y-74396791D02*
X173328931Y-74374128D01*
X173025873Y-74404523D02*
X173179667Y-74396791D01*
X172660728Y-74404523D02*
X173025873Y-74404523D01*
X172295580Y-74404523D02*
X172660728Y-74404523D01*
X171930436Y-74404523D02*
X172295580Y-74404523D01*
X171565288Y-74404523D02*
X171930436Y-74404523D01*
X171200143Y-74404523D02*
X171565288Y-74404523D01*
X170834999Y-74404523D02*
X171200143Y-74404523D01*
X170469851Y-74404523D02*
X170834999Y-74404523D01*
X170104706Y-74404523D02*
X170469851Y-74404523D01*
X169739561Y-74404523D02*
X170104706Y-74404523D01*
X169374414Y-74404523D02*
X169739561Y-74404523D01*
X169009269Y-74404523D02*
X169374414Y-74404523D01*
X168644122Y-74404523D02*
X169009269Y-74404523D01*
X168278977Y-74404523D02*
X168644122Y-74404523D01*
X167913832Y-74404523D02*
X168278977Y-74404523D01*
X167548684Y-74404523D02*
X167913832Y-74404523D01*
X167183540Y-74404523D02*
X167548684Y-74404523D01*
X167029751Y-74396791D02*
X167183540Y-74404523D01*
X166880506Y-74374128D02*
X167029751Y-74396791D01*
X166736545Y-74337261D02*
X166880506Y-74374128D01*
X166598609Y-74286936D02*
X166736545Y-74337261D01*
X166467446Y-74223898D02*
X166598609Y-74286936D01*
X166343790Y-74148889D02*
X166467446Y-74223898D01*
X166228392Y-74062654D02*
X166343790Y-74148889D01*
X166121986Y-73965936D02*
X166228392Y-74062654D01*
X166025322Y-73859482D02*
X166121986Y-73965936D01*
X165939137Y-73744033D02*
X166025322Y-73859482D01*
X165864173Y-73620332D02*
X165939137Y-73744033D01*
X165801179Y-73489124D02*
X165864173Y-73620332D01*
X165750887Y-73351157D02*
X165801179Y-73489124D01*
X165714048Y-73207167D02*
X165750887Y-73351157D01*
X165691386Y-73057903D02*
X165714048Y-73207167D01*
X165683681Y-72904109D02*
X165691386Y-73057903D01*
X165683681Y-72332428D02*
X165683681Y-72897598D01*
X165683681Y-71767261D02*
X165683681Y-72332428D01*
X165683681Y-71202091D02*
X165683681Y-71767261D01*
X165683681Y-70636925D02*
X165683681Y-71202091D01*
X165683681Y-70071758D02*
X165683681Y-70636925D01*
X165683681Y-69506588D02*
X165683681Y-70071758D01*
X165683681Y-68941421D02*
X165683681Y-69506588D01*
X165681705Y-68890810D02*
X165683681Y-68941421D01*
X165675299Y-68839053D02*
X165681705Y-68890810D01*
X165664067Y-68786537D02*
X165675299Y-68839053D01*
X165647585Y-68733643D02*
X165664067Y-68786537D01*
X165625374Y-68680760D02*
X165647585Y-68733643D01*
X165596977Y-68628276D02*
X165625374Y-68680760D01*
X165561950Y-68576567D02*
X165596977Y-68628276D01*
X165519843Y-68526029D02*
X165561950Y-68576567D01*
X165470202Y-68477041D02*
X165519843Y-68526029D01*
X165412578Y-68429989D02*
X165470202Y-68477041D01*
X165346516Y-68385263D02*
X165412578Y-68429989D01*
X165271566Y-68343242D02*
X165346516Y-68385263D01*
X165187275Y-68304318D02*
X165271566Y-68343242D01*
X165093190Y-68268871D02*
X165187275Y-68304318D01*
X164988861Y-68237291D02*
X165093190Y-68268871D01*
X164873836Y-68209971D02*
X164988861Y-68237291D01*
X164345835Y-68209971D02*
X164873836Y-68209971D01*
X163182837Y-68209971D02*
X164377800Y-68209971D01*
X162654835Y-68209971D02*
X163182837Y-68209971D01*
X162126837Y-68209971D02*
X162654835Y-68209971D01*
X161598836Y-68209971D02*
X162126837Y-68209971D01*
X161070838Y-68209971D02*
X161598836Y-68209971D01*
X160542837Y-68209971D02*
X161070838Y-68209971D01*
X160014836Y-68209971D02*
X160542837Y-68209971D01*
X159486837Y-68209971D02*
X160014836Y-68209971D01*
X158958836Y-68209971D02*
X159486837Y-68209971D01*
X158430838Y-68209971D02*
X158958836Y-68209971D01*
X157902837Y-68209971D02*
X158430838Y-68209971D01*
X157374839Y-68209971D02*
X157902837Y-68209971D01*
X156846838Y-68209971D02*
X157374839Y-68209971D01*
X156159200Y-68209971D02*
X156846838Y-68209971D01*
X156024086Y-68217253D02*
X156146438Y-68209971D01*
X155913529Y-68232973D02*
X156024086Y-68217253D01*
X155814232Y-68256341D02*
X155913529Y-68232973D01*
X155725651Y-68286485D02*
X155814232Y-68256341D01*
X155647252Y-68322587D02*
X155725651Y-68286485D01*
X155578494Y-68363816D02*
X155647252Y-68322587D01*
X155518838Y-68409342D02*
X155578494Y-68363816D01*
X155467750Y-68458333D02*
X155518838Y-68409342D01*
X155424689Y-68509957D02*
X155467750Y-68458333D01*
X155389115Y-68563384D02*
X155424689Y-68509957D01*
X155360492Y-68617785D02*
X155389115Y-68563384D01*
X155338281Y-68672328D02*
X155360492Y-68617785D01*
X155321940Y-68726181D02*
X155338281Y-68672328D01*
X155310933Y-68778511D02*
X155321940Y-68726181D01*
X155304725Y-68828490D02*
X155310933Y-68778511D01*
X155302749Y-68875288D02*
X155304725Y-68828490D01*
X155302749Y-72179960D02*
X155302749Y-68875288D01*
X155302749Y-75484636D02*
X155302749Y-72179960D01*
X155302749Y-78789309D02*
X155302749Y-75484636D01*
X155302749Y-82093981D02*
X155302749Y-78789309D01*
X155302749Y-85398657D02*
X155302749Y-82093981D01*
X155302749Y-88703329D02*
X155302749Y-85398657D01*
X155302749Y-92008002D02*
X155302749Y-88703329D01*
X155302749Y-95312675D02*
X155302749Y-92008002D01*
X155302749Y-98617350D02*
X155302749Y-95312675D01*
X155302749Y-101922023D02*
X155302749Y-98617350D01*
X155302749Y-105226695D02*
X155302749Y-101922023D01*
X155302749Y-108531368D02*
X155302749Y-105226695D01*
X155302749Y-111836049D02*
X155302749Y-108531368D01*
X155302749Y-115140730D02*
X155302749Y-111836049D01*
X155302749Y-118445383D02*
X155302749Y-115140730D01*
X155302749Y-121750064D02*
X155302749Y-118445383D01*
X155295600Y-121920000D02*
X155302749Y-121750064D01*
X155295600Y-122123200D02*
X155295600Y-121945400D01*
X155260887Y-122273304D02*
X155297754Y-122129314D01*
X155210561Y-122411283D02*
X155260887Y-122273304D01*
X155147524Y-122542488D02*
X155210561Y-122411283D01*
X155072515Y-122666186D02*
X155147524Y-122542488D01*
X154986279Y-122781643D02*
X155072515Y-122666186D01*
X154889562Y-122888097D02*
X154986279Y-122781643D01*
X154783107Y-122984815D02*
X154889562Y-122888097D01*
X154667659Y-123071034D02*
X154783107Y-122984815D01*
X154543958Y-123146048D02*
X154667659Y-123071034D01*
X154412750Y-123209097D02*
X154543958Y-123146048D01*
X154274783Y-123259417D02*
X154412750Y-123209097D01*
X154130793Y-123296275D02*
X154274783Y-123259417D01*
X153981528Y-123318853D02*
X154130793Y-123296275D01*
X153797000Y-123317000D02*
X154025600Y-123317000D01*
X141300200Y-123266200D02*
X141478000Y-123317000D01*
X141150306Y-123208617D02*
X141300200Y-123266200D01*
X141012371Y-123158297D02*
X141150306Y-123208617D01*
X140881206Y-123095248D02*
X141012371Y-123158297D01*
X140757553Y-123020234D02*
X140881206Y-123095248D01*
X140642153Y-122934015D02*
X140757553Y-123020234D01*
X140535749Y-122837297D02*
X140642153Y-122934015D01*
X140439083Y-122730843D02*
X140535749Y-122837297D01*
X140352898Y-122615386D02*
X140439083Y-122730843D01*
X140252536Y-122466288D02*
X140327498Y-122589986D01*
X140189539Y-122335083D02*
X140252536Y-122466288D01*
X140139249Y-122197104D02*
X140189539Y-122335083D01*
X140102409Y-122053114D02*
X140139249Y-122197104D01*
X140079760Y-121903847D02*
X140102409Y-122053114D01*
X140072047Y-121750064D02*
X140079760Y-121903847D01*
X140072047Y-118445383D02*
X140072047Y-121750064D01*
X140072047Y-115140730D02*
X140072047Y-118445383D01*
X140072047Y-111836049D02*
X140072047Y-115140730D01*
X140072047Y-108531368D02*
X140072047Y-111836049D01*
X140072047Y-105226695D02*
X140072047Y-108531368D01*
X140072047Y-101922023D02*
X140072047Y-105226695D01*
X140072047Y-98617350D02*
X140072047Y-101922023D01*
X140072047Y-95312677D02*
X140072047Y-98617350D01*
X140072047Y-92008002D02*
X140072047Y-95312677D01*
X140072047Y-88703329D02*
X140072047Y-92008002D01*
X140072047Y-85398657D02*
X140072047Y-88703329D01*
X140072047Y-82093981D02*
X140072047Y-85398657D01*
X140072047Y-78789309D02*
X140072047Y-82093981D01*
X140072047Y-75484636D02*
X140072047Y-78789309D01*
X140072047Y-72179960D02*
X140072047Y-75484636D01*
X140072047Y-68875288D02*
X140072047Y-72179960D01*
X140054312Y-68816190D02*
X140072047Y-68875288D01*
X140037441Y-68756661D02*
X140054312Y-68816190D01*
X140020251Y-68697293D02*
X140037441Y-68756661D01*
X140001554Y-68638675D02*
X140020251Y-68697293D01*
X139980161Y-68581407D02*
X140001554Y-68638675D01*
X139954888Y-68526077D02*
X139980161Y-68581407D01*
X139924550Y-68473282D02*
X139954888Y-68526077D01*
X139887961Y-68423614D02*
X139924550Y-68473282D01*
X139843932Y-68377662D02*
X139887961Y-68423614D01*
X139791278Y-68336023D02*
X139843932Y-68377662D01*
X139728813Y-68299292D02*
X139791278Y-68336023D01*
X139655350Y-68268058D02*
X139728813Y-68299292D01*
X139569704Y-68242912D02*
X139655350Y-68268058D01*
X139470688Y-68224455D02*
X139569704Y-68242912D01*
X139357115Y-68213279D02*
X139470688Y-68224455D01*
X139227799Y-68209977D02*
X139357115Y-68213279D01*
X138737624Y-68215142D02*
X139227799Y-68209977D01*
X138247448Y-68220306D02*
X138737624Y-68215142D01*
X137757272Y-68225471D02*
X138247448Y-68220306D01*
X137267097Y-68230636D02*
X137757272Y-68225471D01*
X136776921Y-68235800D02*
X137267097Y-68230636D01*
X136286745Y-68240965D02*
X136776921Y-68235800D01*
X135796569Y-68246130D02*
X136286745Y-68240965D01*
X135306394Y-68251294D02*
X135796569Y-68246130D01*
X134816218Y-68256459D02*
X135306394Y-68251294D01*
X134326042Y-68261624D02*
X134816218Y-68256459D01*
X133835866Y-68266788D02*
X134326042Y-68261624D01*
X133345691Y-68271953D02*
X133835866Y-68266788D01*
X132855515Y-68277118D02*
X133345691Y-68271953D01*
X132365339Y-68282282D02*
X132855515Y-68277118D01*
X131875164Y-68287447D02*
X132365339Y-68282282D01*
X131384988Y-68292612D02*
X131875164Y-68287447D01*
X131259285Y-68289282D02*
X131384988Y-68292612D01*
X131143666Y-68296450D02*
X131259285Y-68289282D01*
X131037859Y-68313186D02*
X131143666Y-68296450D01*
X130941592Y-68338501D02*
X131037859Y-68313186D01*
X130854591Y-68371436D02*
X130941592Y-68338501D01*
X130776586Y-68411029D02*
X130854591Y-68371436D01*
X130707302Y-68456318D02*
X130776586Y-68411029D01*
X130646468Y-68506339D02*
X130707302Y-68456318D01*
X130593811Y-68560130D02*
X130646468Y-68506339D01*
X130549060Y-68616730D02*
X130593811Y-68560130D01*
X130511940Y-68675175D02*
X130549060Y-68616730D01*
X130482180Y-68734501D02*
X130511940Y-68675175D01*
X130459509Y-68793748D02*
X130482180Y-68734501D01*
X130443651Y-68851954D02*
X130459509Y-68793748D01*
X130434338Y-68908153D02*
X130443651Y-68851954D01*
X130431293Y-68961382D02*
X130434338Y-68908153D01*
X130431293Y-69526516D02*
X130431293Y-68961382D01*
X130431293Y-70091649D02*
X130431293Y-69526516D01*
X130431293Y-70656782D02*
X130431293Y-70091649D01*
X130431293Y-71221918D02*
X130431293Y-70656782D01*
X130431293Y-71787051D02*
X130431293Y-71221918D01*
X130431293Y-72352184D02*
X130431293Y-71787051D01*
X130431293Y-72917317D02*
X130431293Y-72352184D01*
X130423571Y-73077311D02*
X130431293Y-72923517D01*
X130400906Y-73226576D02*
X130423571Y-73077311D01*
X130364038Y-73370566D02*
X130400906Y-73226576D01*
X130313713Y-73508533D02*
X130364038Y-73370566D01*
X130250674Y-73639741D02*
X130313713Y-73508533D01*
X130175665Y-73763442D02*
X130250674Y-73639741D01*
X130089431Y-73878890D02*
X130175665Y-73763442D01*
X129992714Y-73985344D02*
X130089431Y-73878890D01*
X129886258Y-74082062D02*
X129992714Y-73985344D01*
X129770809Y-74168298D02*
X129886258Y-74082062D01*
X129647108Y-74243307D02*
X129770809Y-74168298D01*
X129515901Y-74306344D02*
X129647108Y-74243307D01*
X129377932Y-74356670D02*
X129515901Y-74306344D01*
X129233943Y-74393537D02*
X129377932Y-74356670D01*
X129084679Y-74416199D02*
X129233943Y-74393537D01*
X128930885Y-74423932D02*
X129084679Y-74416199D01*
X128565739Y-74423932D02*
X128930885Y-74423932D01*
X128200593Y-74423932D02*
X128565739Y-74423932D01*
X127835447Y-74423932D02*
X128200593Y-74423932D01*
X127470302Y-74423932D02*
X127835447Y-74423932D01*
X127105156Y-74423932D02*
X127470302Y-74423932D01*
X126740010Y-74423932D02*
X127105156Y-74423932D01*
X126374865Y-74423932D02*
X126740010Y-74423932D01*
X126009719Y-74423932D02*
X126374865Y-74423932D01*
X125644574Y-74423932D02*
X126009719Y-74423932D01*
X125279428Y-74423932D02*
X125644574Y-74423932D01*
X124914282Y-74423932D02*
X125279428Y-74423932D01*
X124549137Y-74423932D02*
X124914282Y-74423932D01*
X124183991Y-74423932D02*
X124549137Y-74423932D01*
X123818845Y-74423932D02*
X124183991Y-74423932D01*
X123453699Y-74423932D02*
X123818845Y-74423932D01*
X123088554Y-74423932D02*
X123453699Y-74423932D01*
X122934765Y-74416199D02*
X123088554Y-74423932D01*
X122785519Y-74393537D02*
X122934765Y-74416199D01*
X122641558Y-74356670D02*
X122785519Y-74393537D01*
X122503623Y-74306344D02*
X122641558Y-74356670D01*
X122372458Y-74243307D02*
X122503623Y-74306344D01*
X121105804Y-68326298D02*
X121229458Y-68401307D01*
X122133404Y-74082062D02*
X122248804Y-74168298D01*
X122027000Y-73985344D02*
X122133404Y-74082062D01*
X121930335Y-73878890D02*
X122027000Y-73985344D01*
X121844150Y-73763442D02*
X121930335Y-73878890D01*
X121769187Y-73639741D02*
X121844150Y-73763442D01*
X121706190Y-73508533D02*
X121769187Y-73639741D01*
X121655900Y-73370566D02*
X121706190Y-73508533D01*
X121619060Y-73226576D02*
X121655900Y-73370566D01*
X121596412Y-73077311D02*
X121619060Y-73226576D01*
X121588696Y-72923517D02*
X121596412Y-73077311D01*
X121588696Y-72352184D02*
X121588696Y-72917317D01*
X121588696Y-71787051D02*
X121588696Y-72352184D01*
X121588696Y-71221918D02*
X121588696Y-71787051D01*
X121588696Y-70656782D02*
X121588696Y-71221918D01*
X121588696Y-70091649D02*
X121588696Y-70656782D01*
X121588696Y-69526516D02*
X121588696Y-70091649D01*
X121588696Y-68961382D02*
X121588696Y-69526516D01*
X121585349Y-68909039D02*
X121588696Y-68961382D01*
X121575372Y-68855177D02*
X121585349Y-68909039D01*
X121558853Y-68800279D02*
X121575372Y-68855177D01*
X121535883Y-68744819D02*
X121558853Y-68800279D01*
X121506551Y-68689278D02*
X121535883Y-68744819D01*
X121470947Y-68634140D02*
X121506551Y-68689278D01*
X121429162Y-68579877D02*
X121470947Y-68634140D01*
X121381285Y-68526972D02*
X121429162Y-68579877D01*
X121327408Y-68475904D02*
X121381285Y-68526972D01*
X121267619Y-68427150D02*
X121327408Y-68475904D01*
X121202009Y-68381190D02*
X121267619Y-68427150D01*
X122271128Y-74185584D02*
X122342469Y-74228270D01*
X121053687Y-68299571D02*
X121130668Y-68338504D01*
X120971155Y-68264869D02*
X121053687Y-68299571D01*
X120883163Y-68234878D02*
X120971155Y-68264869D01*
X120789800Y-68210070D02*
X120883163Y-68234878D01*
X120618590Y-68210070D02*
X120789800Y-68210070D01*
X120447381Y-68210070D02*
X120618590Y-68210070D01*
X120276171Y-68210070D02*
X120447381Y-68210070D01*
X120104962Y-68210070D02*
X120276171Y-68210070D01*
X119933752Y-68210070D02*
X120104962Y-68210070D01*
X119762542Y-68210070D02*
X119933752Y-68210070D01*
X119591333Y-68210070D02*
X119762542Y-68210070D01*
X119420123Y-68210070D02*
X119591333Y-68210070D01*
X119248914Y-68210070D02*
X119420123Y-68210070D01*
X119077704Y-68210070D02*
X119248914Y-68210070D01*
X118906495Y-68210070D02*
X119077704Y-68210070D01*
X118735285Y-68210070D02*
X118906495Y-68210070D01*
X118564075Y-68210070D02*
X118735285Y-68210070D01*
X118392866Y-68210070D02*
X118564075Y-68210070D01*
X118221656Y-68210070D02*
X118392866Y-68210070D01*
X118050447Y-68210070D02*
X118221656Y-68210070D01*
X117896658Y-68202366D02*
X118050447Y-68210070D01*
X117747412Y-68179703D02*
X117896658Y-68202366D01*
X117603450Y-68142865D02*
X117747412Y-68179703D01*
X117465516Y-68092573D02*
X117603450Y-68142865D01*
X117334351Y-68029578D02*
X117465516Y-68092573D01*
X117210697Y-67954614D02*
X117334351Y-68029578D01*
X117095297Y-67868429D02*
X117210697Y-67954614D01*
X116988893Y-67771762D02*
X117095297Y-67868429D01*
X116892228Y-67665359D02*
X116988893Y-67771762D01*
X116806043Y-67549958D02*
X116892228Y-67665359D01*
X116731080Y-67426305D02*
X116806043Y-67549958D01*
X116668083Y-67295140D02*
X116731080Y-67426305D01*
X116617793Y-67157206D02*
X116668083Y-67295140D01*
X116580953Y-67013245D02*
X116617793Y-67157206D01*
X116558304Y-66863997D02*
X116580953Y-67013245D01*
X116550590Y-66710209D02*
X116558304Y-66863997D01*
X116550590Y-65902816D02*
X116550590Y-66710209D01*
X116550590Y-65095423D02*
X116550590Y-65902816D01*
X116550590Y-64288031D02*
X116550590Y-65095423D01*
X116550590Y-63480638D02*
X116550590Y-64288031D01*
X116550590Y-62673246D02*
X116550590Y-63480638D01*
X116550590Y-61865853D02*
X116550590Y-62673246D01*
X116550590Y-61058460D02*
X116550590Y-61865853D01*
X116550590Y-60251068D02*
X116550590Y-61058460D01*
X116550590Y-59443678D02*
X116550590Y-60251068D01*
X116550590Y-58636285D02*
X116550590Y-59443678D01*
X116550590Y-57828893D02*
X116550590Y-58636285D01*
X116550590Y-57021500D02*
X116550590Y-57828893D01*
X116550590Y-56214107D02*
X116550590Y-57021500D01*
X116550590Y-55406715D02*
X116550590Y-56214107D01*
X116550590Y-54599322D02*
X116550590Y-55406715D01*
X116550590Y-53791930D02*
X116550590Y-54599322D01*
X116558304Y-53638141D02*
X116550590Y-53791930D01*
X116580953Y-53488893D02*
X116558304Y-53638141D01*
X116617793Y-53344932D02*
X116580953Y-53488893D01*
X116668083Y-53206999D02*
X116617793Y-53344932D01*
X116731080Y-53075833D02*
X116668083Y-53206999D01*
X116806043Y-52952180D02*
X116731080Y-53075833D01*
X116892228Y-52836780D02*
X116806043Y-52952180D01*
X116988893Y-52730376D02*
X116892228Y-52836780D01*
X117095297Y-52633709D02*
X116988893Y-52730376D01*
X117210697Y-52547524D02*
X117095297Y-52633709D01*
X117334351Y-52472560D02*
X117210697Y-52547524D01*
X117465516Y-52409566D02*
X117334351Y-52472560D01*
X117603450Y-52359274D02*
X117465516Y-52409566D01*
X117747412Y-52322435D02*
X117603450Y-52359274D01*
X117896658Y-52299773D02*
X117747412Y-52322435D01*
X118050447Y-52292068D02*
X117896658Y-52299773D01*
M02*
