G04 #@! TF.FileFunction,Soldermask,Top*
%FSLAX46Y46*%
G04 Gerber Fmt 4.6, Leading zero omitted, Abs format (unit mm)*
G04 Created by KiCad (PCBNEW (2015-07-30 BZR 6023, Git cb629e0)-product) date 8/27/2015 11:16:19 AM*
%MOMM*%
G01*
G04 APERTURE LIST*
%ADD10C,0.100000*%
%ADD11C,2.100000*%
%ADD12R,2.127200X2.127200*%
%ADD13O,2.127200X2.127200*%
%ADD14R,2.432000X2.432000*%
%ADD15O,2.432000X2.432000*%
G04 APERTURE END LIST*
D10*
D11*
X144272000Y-71120000D03*
X152142000Y-71120000D03*
X144272000Y-73660000D03*
X152142000Y-73660000D03*
X144272000Y-76200000D03*
X152142000Y-76200000D03*
X144272000Y-78740000D03*
X152142000Y-78740000D03*
X144272000Y-81280000D03*
X152142000Y-81280000D03*
X144272000Y-83820000D03*
X152142000Y-83820000D03*
X144272000Y-86360000D03*
X152142000Y-86360000D03*
X144272000Y-88900000D03*
X152142000Y-88900000D03*
X144272000Y-91440000D03*
X152142000Y-91440000D03*
X144272000Y-93980000D03*
X152142000Y-93980000D03*
X144272000Y-96520000D03*
X152142000Y-96520000D03*
X144272000Y-99060000D03*
X152142000Y-99060000D03*
X144272000Y-101600000D03*
X152142000Y-101600000D03*
X144272000Y-104140000D03*
X152142000Y-104140000D03*
X144272000Y-106680000D03*
X152142000Y-106680000D03*
X144272000Y-109220000D03*
X152142000Y-109220000D03*
X144272000Y-111760000D03*
X152142000Y-111760000D03*
X144272000Y-114300000D03*
X152142000Y-114300000D03*
X144272000Y-116840000D03*
X152142000Y-116840000D03*
X144272000Y-119380000D03*
X152142000Y-119380000D03*
D12*
X171450000Y-58420000D03*
D13*
X171450000Y-60960000D03*
X168910000Y-58420000D03*
X168910000Y-60960000D03*
X166370000Y-58420000D03*
X166370000Y-60960000D03*
X163830000Y-58420000D03*
X163830000Y-60960000D03*
X161290000Y-58420000D03*
X161290000Y-60960000D03*
X158750000Y-58420000D03*
X158750000Y-60960000D03*
X156210000Y-58420000D03*
X156210000Y-60960000D03*
X153670000Y-58420000D03*
X153670000Y-60960000D03*
X151130000Y-58420000D03*
X151130000Y-60960000D03*
X148590000Y-58420000D03*
X148590000Y-60960000D03*
X146050000Y-58420000D03*
X146050000Y-60960000D03*
X143510000Y-58420000D03*
X143510000Y-60960000D03*
X140970000Y-58420000D03*
X140970000Y-60960000D03*
X138430000Y-58420000D03*
X138430000Y-60960000D03*
X135890000Y-58420000D03*
X135890000Y-60960000D03*
X133350000Y-58420000D03*
X133350000Y-60960000D03*
X130810000Y-58420000D03*
X130810000Y-60960000D03*
X128270000Y-58420000D03*
X128270000Y-60960000D03*
X125730000Y-58420000D03*
X125730000Y-60960000D03*
X123190000Y-58420000D03*
X123190000Y-60960000D03*
D14*
X168910000Y-72390000D03*
D15*
X171450000Y-72390000D03*
D14*
X124460000Y-72390000D03*
D15*
X127000000Y-72390000D03*
M02*
