  0
SECTION
  2
HEADER
  9
$ACADVER
  1
AC1014
  9
$HANDSEED
  5
FFFF
  9
$MEASUREMENT
 70
     1
  0
ENDSEC
  0
SECTION
  2
TABLES
  0
TABLE
  2
VPORT
  5
8
330
0
100
AcDbSymbolTable
 70
     4
  0
VPORT
  5
2E
330
8
100
AcDbSymbolTableRecord
100
AcDbViewportTableRecord
  2
*ACTIVE
 70
     0
 10
0.0
 20
0.0
 11
1.0
 21
1.0
 12
210.0
 22
148.5
 13
0.0
 23
0.0
 14
10.0
 24
10.0
 15
10.0
 25
10.0
 16
0.0
 26
0.0
 36
1.0
 17
0.0
 27
0.0
 37
0.0
 40
341.0
 41
1.24
 42
50.0
 43
0.0
 44
0.0
 50
0.0
 51
0.0
 71
     0
 72
   100
 73
     1
 74
     3
 75
     0
 76
     0
 77
     0
 78
     0
  0
ENDTAB
  0
TABLE
  2
LTYPE
  5
5
330
0
100
AcDbSymbolTable
 70
     1
  0
LTYPE
  5
14
330
5
100
AcDbSymbolTableRecord
100
AcDbLinetypeTableRecord
  2
BYBLOCK
 70
     0
  3

 72
    65
 73
     0
 40
0.0
  0
LTYPE
  5
15
330
5
100
AcDbSymbolTableRecord
100
AcDbLinetypeTableRecord
  2
BYLAYER
 70
     0
  3

 72
    65
 73
     0
 40
0.0
  0
LTYPE
  5
16
330
5
100
AcDbSymbolTableRecord
100
AcDbLinetypeTableRecord
  2
CONTINUOUS
 70
     0
  3
Solid line
 72
    65
 73
     0
 40
0.0
  0
ENDTAB
  0
TABLE
  2
LAYER
  5
2
100
AcDbSymbolTable
 70
2
  0
LAYER
  5
50
100
AcDbSymbolTableRecord
100
AcDbLayerTableRecord
  2
0
 70
0
  6
CONTINUOUS
  0
LAYER
  5
51
100
AcDbSymbolTableRecord
100
AcDbLayerTableRecord
  2
Layer_1
 70
0
  6
CONTINUOUS
  0
ENDTAB
  0
TABLE
  2
STYLE
  5
3
330
0
100
AcDbSymbolTable
 70
     1
  0
STYLE
  5
11
330
3
100
AcDbSymbolTableRecord
100
AcDbTextStyleTableRecord
  2
STANDARD
 70
     0
 40
0.0
 41
1.0
 50
0.0
 71
     0
 42
2.5
  3
txt
  4

  0
ENDTAB
  0
TABLE
  2
VIEW
  5
6
330
0
100
AcDbSymbolTable
 70
     0
  0
ENDTAB
  0
TABLE
  2
UCS
  5
7
330
0
100
AcDbSymbolTable
 70
     0
  0
ENDTAB
  0
TABLE
  2
APPID
  5
9
330
0
100
AcDbSymbolTable
 70
     2
  0
APPID
  5
12
330
9
100
AcDbSymbolTableRecord
100
AcDbRegAppTableRecord
  2
ACAD
 70
     0
  0
ENDTAB
  0
TABLE
  2
DIMSTYLE
  5
A
330
0
100
AcDbSymbolTable
 70
     1
  0
DIMSTYLE
105
27
330
A
100
AcDbSymbolTableRecord
100
AcDbDimStyleTableRecord
  2
ISO-25
 70
     0
  3

  4

  5

  6

  7

 40
1.0
 41
2.5
 42
0.625
 43
3.75
 44
1.25
 45
0.0
 46
0.0
 47
0.0
 48
0.0
140
2.5
141
2.5
142
0.0
143
0.03937007874016
144
1.0
145
0.0
146
1.0
147
0.625
 71
     0
 72
     0
 73
     0
 74
     0
 75
     0
 76
     0
 77
     1
 78
     8
170
     0
171
     3
172
     1
173
     0
174
     0
175
     0
176
     0
177
     0
178
     0
270
     2
271
     2
272
     2
273
     2
274
     3
340
11
275
     0
280
     0
281
     0
282
     0
283
     0
284
     8
285
     0
286
     0
287
     3
288
     0
  0
ENDTAB
  0
TABLE
  2
BLOCK_RECORD
  5
1
330
0
100
AcDbSymbolTable
 70
     1
  0
BLOCK_RECORD
  5
1F
330
1
100
AcDbSymbolTableRecord
100
AcDbBlockTableRecord
  2
*MODEL_SPACE
  0
BLOCK_RECORD
  5
1B
330
1
100
AcDbSymbolTableRecord
100
AcDbBlockTableRecord
  2
*PAPER_SPACE
  0
ENDTAB
  0
ENDSEC
  0
SECTION
  2
BLOCKS
  0
BLOCK
  5
20
330
1F
100
AcDbEntity
  8
0
100
AcDbBlockBegin
  2
*MODEL_SPACE
 70
     0
 10
0.0
 20
0.0
 30
0.0
  3
*MODEL_SPACE
  1

  0
ENDBLK
  5
21
330
1F
100
AcDbEntity
  8
0
100
AcDbBlockEnd
  0
BLOCK
  5
1C
330
1B
100
AcDbEntity
 67
     1
  8
0
100
AcDbBlockBegin
  2
*PAPER_SPACE
  1

  0
ENDBLK
  5
1D
330
1B
100
AcDbEntity
 67
     1
  8
0
100
AcDbBlockEnd
  0
ENDSEC
  0
SECTION
  2
ENTITIES
  0
LWPOLYLINE
  5
100
100
AcDbEntity
  8
Layer_1
 62
1
100
AcDbPolyline
 90
513
 70
1
 10
1.540647
 20
70.999532
 30
0.0
 10
1.386858
 20
70.991827
 30
0.0
 10
1.237612
 20
70.969165
 30
0.0
 10
1.093650
 20
70.932326
 30
0.0
 10
0.955716
 20
70.882034
 30
0.0
 10
0.824551
 20
70.819040
 30
0.0
 10
0.700897
 20
70.744076
 30
0.0
 10
0.585497
 20
70.657891
 30
0.0
 10
0.479093
 20
70.561224
 30
0.0
 10
0.382428
 20
70.454820
 30
0.0
 10
0.296243
 20
70.339420
 30
0.0
 10
0.221280
 20
70.215767
 30
0.0
 10
0.158283
 20
70.084601
 30
0.0
 10
0.107993
 20
69.946668
 30
0.0
 10
0.071153
 20
69.802707
 30
0.0
 10
0.048504
 20
69.653459
 30
0.0
 10
0.040790
 20
69.499670
 30
0.0
 10
0.040790
 20
68.692278
 30
0.0
 10
0.040790
 20
67.884885
 30
0.0
 10
0.040790
 20
67.077493
 30
0.0
 10
0.040790
 20
66.270100
 30
0.0
 10
0.040790
 20
65.462707
 30
0.0
 10
0.040790
 20
64.655315
 30
0.0
 10
0.040790
 20
63.847922
 30
0.0
 10
0.040790
 20
63.040532
 30
0.0
 10
0.040790
 20
62.233140
 30
0.0
 10
0.040790
 20
61.425747
 30
0.0
 10
0.040790
 20
60.618354
 30
0.0
 10
0.040790
 20
59.810962
 30
0.0
 10
0.040790
 20
59.003569
 30
0.0
 10
0.040790
 20
58.196177
 30
0.0
 10
0.040790
 20
57.388784
 30
0.0
 10
0.040790
 20
56.581391
 30
0.0
 10
0.048504
 20
56.427603
 30
0.0
 10
0.071153
 20
56.278355
 30
0.0
 10
0.107993
 20
56.134394
 30
0.0
 10
0.158283
 20
55.996460
 30
0.0
 10
0.221280
 20
55.865295
 30
0.0
 10
0.296243
 20
55.741642
 30
0.0
 10
0.382428
 20
55.626241
 30
0.0
 10
0.479093
 20
55.519838
 30
0.0
 10
0.585497
 20
55.423171
 30
0.0
 10
0.700897
 20
55.336986
 30
0.0
 10
0.824551
 20
55.262022
 30
0.0
 10
0.955716
 20
55.199027
 30
0.0
 10
1.093650
 20
55.148735
 30
0.0
 10
1.237612
 20
55.111897
 30
0.0
 10
1.386858
 20
55.089234
 30
0.0
 10
1.540647
 20
55.081530
 30
0.0
 10
1.711856
 20
55.081530
 30
0.0
 10
1.883066
 20
55.081530
 30
0.0
 10
2.054275
 20
55.081530
 30
0.0
 10
2.225485
 20
55.081530
 30
0.0
 10
2.396695
 20
55.081530
 30
0.0
 10
2.567904
 20
55.081530
 30
0.0
 10
2.739114
 20
55.081530
 30
0.0
 10
2.910323
 20
55.081530
 30
0.0
 10
3.081533
 20
55.081530
 30
0.0
 10
3.252742
 20
55.081530
 30
0.0
 10
3.423952
 20
55.081530
 30
0.0
 10
3.595162
 20
55.081530
 30
0.0
 10
3.766371
 20
55.081530
 30
0.0
 10
3.937581
 20
55.081530
 30
0.0
 10
4.108790
 20
55.081530
 30
0.0
 10
4.280000
 20
55.081530
 30
0.0
 10
4.373363
 20
55.056722
 30
0.0
 10
4.461355
 20
55.026731
 30
0.0
 10
4.543887
 20
54.992029
 30
0.0
 10
4.620868
 20
54.953096
 30
0.0
 10
4.692209
 20
54.910410
 30
0.0
 10
4.757819
 20
54.864450
 30
0.0
 10
4.817608
 20
54.815696
 30
0.0
 10
4.871485
 20
54.764628
 30
0.0
 10
4.919362
 20
54.711723
 30
0.0
 10
4.961147
 20
54.657460
 30
0.0
 10
4.996751
 20
54.602322
 30
0.0
 10
5.026083
 20
54.546781
 30
0.0
 10
5.049053
 20
54.491321
 30
0.0
 10
5.065572
 20
54.436423
 30
0.0
 10
5.075549
 20
54.382561
 30
0.0
 10
5.078896
 20
54.330218
 30
0.0
 10
5.078896
 20
53.765084
 30
0.0
 10
5.078896
 20
53.199951
 30
0.0
 10
5.078896
 20
52.634818
 30
0.0
 10
5.078896
 20
52.069682
 30
0.0
 10
5.078896
 20
51.504549
 30
0.0
 10
5.078896
 20
50.939416
 30
0.0
 10
5.078896
 20
50.374283
 30
0.0
 10
5.078896
 20
49.809150
 30
0.0
 10
5.078896
 20
49.244017
 30
0.0
 10
5.078896
 20
48.678884
 30
0.0
 10
5.078896
 20
48.113751
 30
0.0
 10
5.078896
 20
47.548618
 30
0.0
 10
5.078896
 20
46.983482
 30
0.0
 10
5.078896
 20
46.418349
 30
0.0
 10
5.078896
 20
45.853216
 30
0.0
 10
5.078896
 20
45.288083
 30
0.0
 10
5.086612
 20
45.134289
 30
0.0
 10
5.109260
 20
44.985024
 30
0.0
 10
5.146100
 20
44.841034
 30
0.0
 10
5.196390
 20
44.703067
 30
0.0
 10
5.259387
 20
44.571859
 30
0.0
 10
5.334350
 20
44.448158
 30
0.0
 10
5.420535
 20
44.332710
 30
0.0
 10
5.517200
 20
44.226256
 30
0.0
 10
5.623604
 20
44.129538
 30
0.0
 10
5.739004
 20
44.043302
 30
0.0
 10
5.862658
 20
43.968293
 30
0.0
 10
5.993823
 20
43.905256
 30
0.0
 10
6.131758
 20
43.854930
 30
0.0
 10
6.275719
 20
43.818063
 30
0.0
 10
6.424965
 20
43.795401
 30
0.0
 10
6.578754
 20
43.787668
 30
0.0
 10
6.943899
 20
43.787668
 30
0.0
 10
7.309045
 20
43.787668
 30
0.0
 10
7.674191
 20
43.787668
 30
0.0
 10
8.039337
 20
43.787668
 30
0.0
 10
8.404482
 20
43.787668
 30
0.0
 10
8.769628
 20
43.787668
 30
0.0
 10
9.134774
 20
43.787668
 30
0.0
 10
9.499919
 20
43.787668
 30
0.0
 10
9.865065
 20
43.787668
 30
0.0
 10
10.230210
 20
43.787668
 30
0.0
 10
10.595356
 20
43.787668
 30
0.0
 10
10.960502
 20
43.787668
 30
0.0
 10
11.325647
 20
43.787668
 30
0.0
 10
11.690793
 20
43.787668
 30
0.0
 10
12.055939
 20
43.787668
 30
0.0
 10
12.421085
 20
43.787668
 30
0.0
 10
12.574879
 20
43.795401
 30
0.0
 10
12.724143
 20
43.818063
 30
0.0
 10
12.868132
 20
43.854930
 30
0.0
 10
13.006101
 20
43.905256
 30
0.0
 10
13.137308
 20
43.968293
 30
0.0
 10
13.261009
 20
44.043302
 30
0.0
 10
13.376458
 20
44.129538
 30
0.0
 10
13.482914
 20
44.226256
 30
0.0
 10
13.579631
 20
44.332710
 30
0.0
 10
13.665865
 20
44.448158
 30
0.0
 10
13.740874
 20
44.571859
 30
0.0
 10
13.803913
 20
44.703067
 30
0.0
 10
13.854238
 20
44.841034
 30
0.0
 10
13.891106
 20
44.985024
 30
0.0
 10
13.913771
 20
45.134289
 30
0.0
 10
13.921493
 20
45.288083
 30
0.0
 10
13.921493
 20
45.853216
 30
0.0
 10
13.921493
 20
46.418349
 30
0.0
 10
13.921493
 20
46.983482
 30
0.0
 10
13.921493
 20
47.548618
 30
0.0
 10
13.921493
 20
48.113751
 30
0.0
 10
13.921493
 20
48.678884
 30
0.0
 10
13.921493
 20
49.244017
 30
0.0
 10
13.921493
 20
49.809150
 30
0.0
 10
13.921493
 20
50.374283
 30
0.0
 10
13.921493
 20
50.939416
 30
0.0
 10
13.921493
 20
51.504549
 30
0.0
 10
13.921493
 20
52.069682
 30
0.0
 10
13.921493
 20
52.634818
 30
0.0
 10
13.921493
 20
53.199951
 30
0.0
 10
13.921493
 20
53.765084
 30
0.0
 10
13.921493
 20
54.330218
 30
0.0
 10
13.924538
 20
54.383447
 30
0.0
 10
13.933851
 20
54.439646
 30
0.0
 10
13.949709
 20
54.497852
 30
0.0
 10
13.972380
 20
54.557099
 30
0.0
 10
14.002140
 20
54.616425
 30
0.0
 10
14.039260
 20
54.674870
 30
0.0
 10
14.084011
 20
54.731470
 30
0.0
 10
14.136668
 20
54.785261
 30
0.0
 10
14.197502
 20
54.835282
 30
0.0
 10
14.266786
 20
54.880571
 30
0.0
 10
14.344791
 20
54.920164
 30
0.0
 10
14.431792
 20
54.953099
 30
0.0
 10
14.528059
 20
54.978414
 30
0.0
 10
14.633866
 20
54.995150
 30
0.0
 10
14.749485
 20
55.002318
 30
0.0
 10
14.875188
 20
54.998988
 30
0.0
 10
15.365364
 20
55.004153
 30
0.0
 10
15.855539
 20
55.009318
 30
0.0
 10
16.345715
 20
55.014482
 30
0.0
 10
16.835891
 20
55.019647
 30
0.0
 10
17.326066
 20
55.024812
 30
0.0
 10
17.816242
 20
55.029976
 30
0.0
 10
18.306418
 20
55.035141
 30
0.0
 10
18.796594
 20
55.040306
 30
0.0
 10
19.286769
 20
55.045470
 30
0.0
 10
19.776945
 20
55.050635
 30
0.0
 10
20.267121
 20
55.055800
 30
0.0
 10
20.757297
 20
55.060964
 30
0.0
 10
21.247472
 20
55.066129
 30
0.0
 10
21.737648
 20
55.071294
 30
0.0
 10
22.227824
 20
55.076458
 30
0.0
 10
22.717999
 20
55.081623
 30
0.0
 10
22.847315
 20
55.078321
 30
0.0
 10
22.960888
 20
55.067145
 30
0.0
 10
23.059904
 20
55.048688
 30
0.0
 10
23.145550
 20
55.023542
 30
0.0
 10
23.219013
 20
54.992308
 30
0.0
 10
23.281478
 20
54.955577
 30
0.0
 10
23.334132
 20
54.913938
 30
0.0
 10
23.378161
 20
54.867986
 30
0.0
 10
23.414750
 20
54.818318
 30
0.0
 10
23.445088
 20
54.765523
 30
0.0
 10
23.470361
 20
54.710193
 30
0.0
 10
23.491754
 20
54.652925
 30
0.0
 10
23.510451
 20
54.594307
 30
0.0
 10
23.527641
 20
54.534939
 30
0.0
 10
23.544512
 20
54.475410
 30
0.0
 10
23.562247
 20
54.416312
 30
0.0
 10
23.562247
 20
51.111640
 30
0.0
 10
23.562247
 20
47.806964
 30
0.0
 10
23.562247
 20
44.502291
 30
0.0
 10
23.562247
 20
41.197619
 30
0.0
 10
23.562247
 20
37.892943
 30
0.0
 10
23.562247
 20
34.588271
 30
0.0
 10
23.562247
 20
31.283598
 30
0.0
 10
23.562247
 20
27.978923
 30
0.0
 10
23.562247
 20
24.674250
 30
0.0
 10
23.562247
 20
21.369577
 30
0.0
 10
23.562247
 20
18.064905
 30
0.0
 10
23.562247
 20
14.760232
 30
0.0
 10
23.562247
 20
11.455551
 30
0.0
 10
23.562247
 20
8.150870
 30
0.0
 10
23.562247
 20
4.846217
 30
0.0
 10
23.562247
 20
1.541536
 30
0.0
 10
23.569960
 20
1.387753
 30
0.0
 10
23.592609
 20
1.238486
 30
0.0
 10
23.629449
 20
1.094496
 30
0.0
 10
23.679739
 20
0.956517
 30
0.0
 10
23.742736
 20
0.825312
 30
0.0
 10
23.817698
 20
0.701614
 30
0.0
 10
23.903883
 20
0.586157
 30
0.0
 10
24.000549
 20
0.479703
 30
0.0
 10
24.106953
 20
0.382985
 30
0.0
 10
24.222353
 20
0.296766
 30
0.0
 10
24.346006
 20
0.221752
 30
0.0
 10
24.477171
 20
0.158703
 30
0.0
 10
24.615106
 20
0.108383
 30
0.0
 10
24.759067
 20
0.071525
 30
0.0
 10
24.908314
 20
0.048947
 30
0.0
 10
25.062102
 20
0.041327
 30
0.0
 10
25.804279
 20
0.041327
 30
0.0
 10
26.546456
 20
0.041327
 30
0.0
 10
27.288633
 20
0.041327
 30
0.0
 10
28.030810
 20
0.041327
 30
0.0
 10
28.772988
 20
0.041327
 30
0.0
 10
29.515164
 20
0.041327
 30
0.0
 10
30.257341
 20
0.041327
 30
0.0
 10
30.999518
 20
0.041327
 30
0.0
 10
31.741694
 20
0.041327
 30
0.0
 10
32.483871
 20
0.041327
 30
0.0
 10
33.226051
 20
0.041327
 30
0.0
 10
33.968227
 20
0.041327
 30
0.0
 10
34.710404
 20
0.041327
 30
0.0
 10
35.452581
 20
0.041327
 30
0.0
 10
36.194758
 20
0.041327
 30
0.0
 10
36.936934
 20
0.041327
 30
0.0
 10
37.090728
 20
0.048947
 30
0.0
 10
37.239993
 20
0.071525
 30
0.0
 10
37.383983
 20
0.108383
 30
0.0
 10
37.521950
 20
0.158703
 30
0.0
 10
37.653158
 20
0.221752
 30
0.0
 10
37.776859
 20
0.296766
 30
0.0
 10
37.892307
 20
0.382985
 30
0.0
 10
37.998762
 20
0.479703
 30
0.0
 10
38.095479
 20
0.586157
 30
0.0
 10
38.181715
 20
0.701614
 30
0.0
 10
38.256724
 20
0.825312
 30
0.0
 10
38.319761
 20
0.956517
 30
0.0
 10
38.370087
 20
1.094496
 30
0.0
 10
38.406954
 20
1.238486
 30
0.0
 10
38.429616
 20
1.387753
 30
0.0
 10
38.437349
 20
1.541536
 30
0.0
 10
38.437349
 20
4.846217
 30
0.0
 10
38.437349
 20
8.150870
 30
0.0
 10
38.437349
 20
11.455551
 30
0.0
 10
38.437349
 20
14.760232
 30
0.0
 10
38.437349
 20
18.064905
 30
0.0
 10
38.437349
 20
21.369577
 30
0.0
 10
38.437349
 20
24.674250
 30
0.0
 10
38.437349
 20
27.978925
 30
0.0
 10
38.437349
 20
31.283598
 30
0.0
 10
38.437349
 20
34.588271
 30
0.0
 10
38.437349
 20
37.892943
 30
0.0
 10
38.437349
 20
41.197619
 30
0.0
 10
38.437349
 20
44.502291
 30
0.0
 10
38.437349
 20
47.806964
 30
0.0
 10
38.437349
 20
51.111640
 30
0.0
 10
38.437349
 20
54.416312
 30
0.0
 10
38.439325
 20
54.463110
 30
0.0
 10
38.445533
 20
54.513089
 30
0.0
 10
38.456540
 20
54.565419
 30
0.0
 10
38.472881
 20
54.619272
 30
0.0
 10
38.495092
 20
54.673815
 30
0.0
 10
38.523715
 20
54.728216
 30
0.0
 10
38.559289
 20
54.781643
 30
0.0
 10
38.602350
 20
54.833267
 30
0.0
 10
38.653438
 20
54.882258
 30
0.0
 10
38.713094
 20
54.927784
 30
0.0
 10
38.781852
 20
54.969013
 30
0.0
 10
38.860251
 20
55.005115
 30
0.0
 10
38.948832
 20
55.035259
 30
0.0
 10
39.048129
 20
55.058627
 30
0.0
 10
39.158686
 20
55.074347
 30
0.0
 10
39.281038
 20
55.081629
 30
0.0
 10
39.809039
 20
55.081629
 30
0.0
 10
40.337038
 20
55.081629
 30
0.0
 10
40.865039
 20
55.081629
 30
0.0
 10
41.393037
 20
55.081629
 30
0.0
 10
41.921038
 20
55.081629
 30
0.0
 10
42.449036
 20
55.081629
 30
0.0
 10
42.977037
 20
55.081629
 30
0.0
 10
43.505036
 20
55.081629
 30
0.0
 10
44.033037
 20
55.081629
 30
0.0
 10
44.561038
 20
55.081629
 30
0.0
 10
45.089036
 20
55.081629
 30
0.0
 10
45.617037
 20
55.081629
 30
0.0
 10
46.145035
 20
55.081629
 30
0.0
 10
46.673037
 20
55.081629
 30
0.0
 10
47.201035
 20
55.081629
 30
0.0
 10
47.729036
 20
55.081629
 30
0.0
 10
47.844061
 20
55.054309
 30
0.0
 10
47.948390
 20
55.022729
 30
0.0
 10
48.042475
 20
54.987282
 30
0.0
 10
48.126766
 20
54.948358
 30
0.0
 10
48.201716
 20
54.906337
 30
0.0
 10
48.267778
 20
54.861611
 30
0.0
 10
48.325402
 20
54.814559
 30
0.0
 10
48.375043
 20
54.765571
 30
0.0
 10
48.417150
 20
54.715033
 30
0.0
 10
48.452177
 20
54.663324
 30
0.0
 10
48.480574
 20
54.610840
 30
0.0
 10
48.502785
 20
54.557957
 30
0.0
 10
48.519267
 20
54.505063
 30
0.0
 10
48.530499
 20
54.452547
 30
0.0
 10
48.536905
 20
54.400790
 30
0.0
 10
48.538881
 20
54.350179
 30
0.0
 10
48.538881
 20
53.785012
 30
0.0
 10
48.538881
 20
53.219842
 30
0.0
 10
48.538881
 20
52.654675
 30
0.0
 10
48.538881
 20
52.089509
 30
0.0
 10
48.538881
 20
51.524339
 30
0.0
 10
48.538881
 20
50.959172
 30
0.0
 10
48.538881
 20
50.394002
 30
0.0
 10
48.538881
 20
49.828835
 30
0.0
 10
48.538881
 20
49.263668
 30
0.0
 10
48.538881
 20
48.698498
 30
0.0
 10
48.538881
 20
48.133332
 30
0.0
 10
48.538881
 20
47.568165
 30
0.0
 10
48.538881
 20
47.002995
 30
0.0
 10
48.538881
 20
46.437828
 30
0.0
 10
48.538881
 20
45.872658
 30
0.0
 10
48.538881
 20
45.307491
 30
0.0
 10
48.546586
 20
45.153697
 30
0.0
 10
48.569248
 20
45.004433
 30
0.0
 10
48.606087
 20
44.860443
 30
0.0
 10
48.656379
 20
44.722476
 30
0.0
 10
48.719373
 20
44.591268
 30
0.0
 10
48.794337
 20
44.467567
 30
0.0
 10
48.880522
 20
44.352118
 30
0.0
 10
48.977186
 20
44.245664
 30
0.0
 10
49.083592
 20
44.148946
 30
0.0
 10
49.198990
 20
44.062711
 30
0.0
 10
49.322646
 20
43.987702
 30
0.0
 10
49.453809
 20
43.924664
 30
0.0
 10
49.591745
 20
43.874339
 30
0.0
 10
49.735706
 20
43.837472
 30
0.0
 10
49.884951
 20
43.814809
 30
0.0
 10
50.038740
 20
43.807077
 30
0.0
 10
50.403884
 20
43.807077
 30
0.0
 10
50.769032
 20
43.807077
 30
0.0
 10
51.134177
 20
43.807077
 30
0.0
 10
51.499322
 20
43.807077
 30
0.0
 10
51.864469
 20
43.807077
 30
0.0
 10
52.229614
 20
43.807077
 30
0.0
 10
52.594761
 20
43.807077
 30
0.0
 10
52.959906
 20
43.807077
 30
0.0
 10
53.325051
 20
43.807077
 30
0.0
 10
53.690199
 20
43.807077
 30
0.0
 10
54.055343
 20
43.807077
 30
0.0
 10
54.420488
 20
43.807077
 30
0.0
 10
54.785636
 20
43.807077
 30
0.0
 10
55.150780
 20
43.807077
 30
0.0
 10
55.515928
 20
43.807077
 30
0.0
 10
55.881073
 20
43.807077
 30
0.0
 10
56.034867
 20
43.814809
 30
0.0
 10
56.184131
 20
43.837472
 30
0.0
 10
56.328118
 20
43.874339
 30
0.0
 10
56.466088
 20
43.924664
 30
0.0
 10
56.597296
 20
43.987702
 30
0.0
 10
56.720994
 20
44.062711
 30
0.0
 10
56.836446
 20
44.148946
 30
0.0
 10
56.942900
 20
44.245664
 30
0.0
 10
57.039618
 20
44.352118
 30
0.0
 10
57.125851
 20
44.467567
 30
0.0
 10
57.200860
 20
44.591268
 30
0.0
 10
57.263900
 20
44.722476
 30
0.0
 10
57.314225
 20
44.860443
 30
0.0
 10
57.351092
 20
45.004433
 30
0.0
 10
57.373755
 20
45.153697
 30
0.0
 10
57.381487
 20
45.307491
 30
0.0
 10
57.381487
 20
45.872658
 30
0.0
 10
57.381487
 20
46.437828
 30
0.0
 10
57.381487
 20
47.002995
 30
0.0
 10
57.381487
 20
47.568165
 30
0.0
 10
57.381487
 20
48.133332
 30
0.0
 10
57.381487
 20
48.698498
 30
0.0
 10
57.381487
 20
49.263668
 30
0.0
 10
57.381487
 20
49.828835
 30
0.0
 10
57.381487
 20
50.394002
 30
0.0
 10
57.381487
 20
50.959172
 30
0.0
 10
57.381487
 20
51.524339
 30
0.0
 10
57.381487
 20
52.089509
 30
0.0
 10
57.381487
 20
52.654675
 30
0.0
 10
57.381487
 20
53.219842
 30
0.0
 10
57.381487
 20
53.785012
 30
0.0
 10
57.381487
 20
54.350179
 30
0.0
 10
57.382616
 20
54.402602
 30
0.0
 10
57.386539
 20
54.459314
 30
0.0
 10
57.394046
 20
54.519208
 30
0.0
 10
57.405984
 20
54.581167
 30
0.0
 10
57.423143
 20
54.644085
 30
0.0
 10
57.446370
 20
54.706849
 30
0.0
 10
57.476461
 20
54.768348
 30
0.0
 10
57.514236
 20
54.827470
 30
0.0
 10
57.560512
 20
54.883108
 30
0.0
 10
57.616104
 20
54.934148
 30
0.0
 10
57.681828
 20
54.979478
 30
0.0
 10
57.758500
 20
55.017993
 30
0.0
 10
57.846934
 20
55.048577
 30
0.0
 10
57.947950
 20
55.070111
 30
0.0
 10
58.062360
 20
55.081513
 30
0.0
 10
58.190980
 20
55.081643
 30
0.0
 10
58.332726
 20
55.081643
 30
0.0
 10
58.474472
 20
55.081643
 30
0.0
 10
58.616221
 20
55.081643
 30
0.0
 10
58.757967
 20
55.081643
 30
0.0
 10
58.899713
 20
55.081643
 30
0.0
 10
59.041459
 20
55.081643
 30
0.0
 10
59.183205
 20
55.081643
 30
0.0
 10
59.324951
 20
55.081643
 30
0.0
 10
59.466700
 20
55.081643
 30
0.0
 10
59.608447
 20
55.081643
 30
0.0
 10
59.750193
 20
55.081643
 30
0.0
 10
59.891939
 20
55.081643
 30
0.0
 10
60.033685
 20
55.081643
 30
0.0
 10
60.175434
 20
55.081643
 30
0.0
 10
60.317180
 20
55.081643
 30
0.0
 10
60.458926
 20
55.081643
 30
0.0
 10
60.612715
 20
55.089347
 30
0.0
 10
60.761962
 20
55.112010
 30
0.0
 10
60.905924
 20
55.148848
 30
0.0
 10
61.043857
 20
55.199140
 30
0.0
 10
61.175023
 20
55.262135
 30
0.0
 10
61.298675
 20
55.337099
 30
0.0
 10
61.414076
 20
55.423284
 30
0.0
 10
61.520480
 20
55.519951
 30
0.0
 10
61.617143
 20
55.626354
 30
0.0
 10
61.703328
 20
55.741755
 30
0.0
 10
61.778292
 20
55.865408
 30
0.0
 10
61.841290
 20
55.996573
 30
0.0
 10
61.891579
 20
56.134507
 30
0.0
 10
61.928418
 20
56.278468
 30
0.0
 10
61.951080
 20
56.427716
 30
0.0
 10
61.958785
 20
56.581504
 30
0.0
 10
61.958785
 20
57.388897
 30
0.0
 10
61.958785
 20
58.196289
 30
0.0
 10
61.958785
 20
59.003682
 30
0.0
 10
61.958785
 20
59.811075
 30
0.0
 10
61.958785
 20
60.618467
 30
0.0
 10
61.958785
 20
61.425860
 30
0.0
 10
61.958785
 20
62.233253
 30
0.0
 10
61.958785
 20
63.040645
 30
0.0
 10
61.958785
 20
63.848035
 30
0.0
 10
61.958785
 20
64.655428
 30
0.0
 10
61.958785
 20
65.462820
 30
0.0
 10
61.958785
 20
66.270213
 30
0.0
 10
61.958785
 20
67.077605
 30
0.0
 10
61.958785
 20
67.884998
 30
0.0
 10
61.958785
 20
68.692391
 30
0.0
 10
61.958785
 20
69.499783
 30
0.0
 10
61.951080
 20
69.653572
 30
0.0
 10
61.928418
 20
69.802819
 30
0.0
 10
61.891579
 20
69.946781
 30
0.0
 10
61.841290
 20
70.084714
 30
0.0
 10
61.778292
 20
70.215880
 30
0.0
 10
61.703328
 20
70.339533
 30
0.0
 10
61.617143
 20
70.454933
 30
0.0
 10
61.520480
 20
70.561337
 30
0.0
 10
61.414076
 20
70.658004
 30
0.0
 10
61.298675
 20
70.744189
 30
0.0
 10
61.175023
 20
70.819152
 30
0.0
 10
61.043857
 20
70.882147
 30
0.0
 10
60.905924
 20
70.932439
 30
0.0
 10
60.761962
 20
70.969278
 30
0.0
 10
60.612715
 20
70.991940
 30
0.0
 10
60.458926
 20
70.999645
 30
0.0
 10
56.776533
 20
70.999645
 30
0.0
 10
53.094140
 20
70.999645
 30
0.0
 10
49.411746
 20
70.999645
 30
0.0
 10
45.729350
 20
70.999645
 30
0.0
 10
42.046957
 20
70.999645
 30
0.0
 10
38.364564
 20
70.999645
 30
0.0
 10
34.682171
 20
70.999645
 30
0.0
 10
30.999777
 20
70.999645
 30
0.0
 10
27.317383
 20
70.999645
 30
0.0
 10
23.634989
 20
70.999645
 30
0.0
 10
19.952595
 20
70.999645
 30
0.0
 10
16.270202
 20
70.999645
 30
0.0
 10
12.587808
 20
70.999645
 30
0.0
 10
8.905415
 20
70.999645
 30
0.0
 10
5.223021
 20
70.999645
 30
0.0
 10
1.540647
 20
70.999532
 30
0.0
  0
ENDSEC
  0
SECTION
  2
OBJECTS
  0
DICTIONARY
  5
C
330
0
100
AcDbDictionary
  3
ACAD_GROUP
350
D
  3
ACAD_MLINESTYLE
350
17
  0
DICTIONARY
  5
D
330
C
100
AcDbDictionary
  0
DICTIONARY
  5
1A
330
C
100
AcDbDictionary
  0
DICTIONARY
  5
17
330
C
100
AcDbDictionary
  3
STANDARD
350
18
  0
DICTIONARY
  5
19
330
C
100
AcDbDictionary
  0
ENDSEC
  0
EOF
